<svg xmlns="http://www.w3.org/2000/svg" id="back" width="64" height="64" preserveAspectRatio="xMinYMid"><defs><style>.cls-1{fill:#002a56}</style></defs><title>estilos iconos paraeducaand_escolares</title><path d="M46.92 12H17.08a4.85 4.85 0 0 0-4.82 4.88v21.7a4.85 4.85 0 0 0 4.82 4.87h8.59l4.72 7.73a1.79 1.79 0 0 0 1.53.86 1.78 1.78 0 0 0 1.53-.86l4.66-7.7h8.8a4.85 4.85 0 0 0 4.82-4.87V16.87A4.85 4.85 0 0 0 46.92 12m0 28.94h-8.8A2.45 2.45 0 0 0 36 42.11l-4.1 6.71-4.1-6.71a2.5 2.5 0 0 0-2.09-1.18h-8.63a2.32 2.32 0 0 1-2.3-2.35V16.87a2.33 2.33 0 0 1 2.3-2.36h29.84a2.33 2.33 0 0 1 2.3 2.36v21.71a2.32 2.32 0 0 1-2.3 2.35Z" class="cls-1"/><path d="M33.34 16.75h-2.68a2.33 2.33 0 0 0-1.73.78 2.78 2.78 0 0 0-.72 2.12l1 12.33a2.53 2.53 0 0 0 2.45 2.45h.76A2.53 2.53 0 0 0 34.83 32l1-12.33a2.82 2.82 0 0 0-.72-2.13 2.36 2.36 0 0 0-1.77-.79m-.06 2.71-1 12.33a1 1 0 0 1 0 .12h-.58a1 1 0 0 1 0-.12l-1-12.33a.6.6 0 0 1 0-.19h2.5a.6.6 0 0 1 .08.19m-1.49 15.61A2.93 2.93 0 1 0 34.72 38a2.93 2.93 0 0 0-2.93-2.93M32.2 38a.41.41 0 0 1-.41.41.41.41 0 1 1 0-.82.41.41 0 0 1 .41.41" class="cls-1"/><path d="M61.12 2.93A9.74 9.74 0 0 0 54.2.07H9.8A9.78 9.78 0 0 0 0 9.83v44.34a9.76 9.76 0 0 0 9.8 9.76h44.4a9.78 9.78 0 0 0 9.8-9.76V9.83a9.66 9.66 0 0 0-2.88-6.9m-.18 6.9v44.34a6.74 6.74 0 0 1-6.74 6.72H9.8a6.73 6.73 0 0 1-6.73-6.72V9.83A6.75 6.75 0 0 1 9.8 3.11h44.4a6.74 6.74 0 0 1 6.74 6.72" class="cls-1"/></svg>