<svg xmlns="http://www.w3.org/2000/svg" width="64" height="64" preserveAspectRatio="xMinYMid" viewBox="0 0 64 64"><title>estilos iconos paraeducaand_escolares</title><path d="M32 63.9A31.9 31.9 0 1 1 63.9 32 31.94 31.94 0 0 1 32 63.9m0-60.85A29 29 0 1 0 61 32 29 29 0 0 0 32 3.05" style="fill:#0065ab"/><path d="M51.08 20h-1.39a.79.79 0 1 0 0 1.57h.6v22.7a.54.54 0 0 1-.54.54H35.29l.6-.24a30.7 30.7 0 0 1 10.4-2 1.4 1.4 0 0 0 1.39-1.4V19a1.37 1.37 0 0 0-.41-1 1.43 1.43 0 0 0-1-.41 31 31 0 0 0-14.21 3.71h-.12a31 31 0 0 0-14.21-3.71 1.43 1.43 0 0 0-1 .41 1.37 1.37 0 0 0-.41 1v22.13a1.4 1.4 0 0 0 1.39 1.4 30.7 30.7 0 0 1 10.4 2l.6.24H14.25a.54.54 0 0 1-.54-.54V21.55h.6a.79.79 0 1 0 0-1.57h-1.39a.78.78 0 0 0-.78.78v23.51a2.11 2.11 0 0 0 2.11 2.12h35.5a2.11 2.11 0 0 0 2.11-2.12V20.76a.78.78 0 0 0-.78-.76ZM31.21 44.26l-.18-.1A31.3 31.3 0 0 0 18 41h-.12V19.19H18a29.2 29.2 0 0 1 13.13 3.48h.06Zm1.58 0V22.71h.06A29.2 29.2 0 0 1 46 19.19h.13V41H46a31.3 31.3 0 0 0-13 3.2Z" style="fill:#0065ab;stroke:#0065ab;stroke-miterlimit:10;stroke-width:.5px"/></svg>