<svg xmlns="http://www.w3.org/2000/svg" width="64" height="64" preserveAspectRatio="xMinYMid" viewBox="0 0 64 64"><defs><style>.cls-1{fill:#a25ac4}</style></defs><title>estilos iconos paraeducaand_escolares</title><path id="back" d="M61.12 2.93A9.74 9.74 0 0 0 54.2.07H9.8A9.78 9.78 0 0 0 0 9.83v44.34a9.76 9.76 0 0 0 9.8 9.76h44.4a9.78 9.78 0 0 0 9.8-9.76V9.83a9.66 9.66 0 0 0-2.88-6.9m-.18 6.9v44.34a6.74 6.74 0 0 1-6.74 6.72H9.8a6.73 6.73 0 0 1-6.73-6.72V9.83A6.75 6.75 0 0 1 9.8 3.11h44.4a6.74 6.74 0 0 1 6.74 6.72" class="cls-1"/><g id="elements"><path d="M49.87 33.45a1.2 1.2 0 0 0-.8-.47 1.25 1.25 0 0 0-.9.23 1.23 1.23 0 0 0-.47.8 1.2 1.2 0 0 0 .23.9c2.64 3.49 3.64 6.6 2.62 8.14-2 3-11.84 1.28-22.77-6A47.6 47.6 0 0 1 15.69 26c-2.39-3.31-3.23-6.16-2.25-7.63s4.46-1.84 8.9-.64A1.22 1.22 0 0 0 23 15.4c-5.67-1.52-9.83-.93-11.54 1.64s-.79 6.11 2.3 10.4a50.3 50.3 0 0 0 12.67 11.65c7.31 4.85 14.85 7.75 20.18 7.75 2.84 0 4.9-.85 6-2.45 1.65-2.53.69-6.39-2.74-10.94" class="cls-1"/><path d="m16.28 24.72-.23.41 2.13 1.15.23-.41a14 14 0 0 1 .95-1.5 2.1 2.1 0 0 0 1 1.43 3.71 3.71 0 0 0 3.27-.11 7 7 0 0 1 .8-.26l.06.33c.2 1.23.51 3.09 2.43 3.73a2.7 2.7 0 0 0 1.95-.27l.36-.15.86.27a10.5 10.5 0 0 0 2.13.54 5 5 0 0 0 .68.05 3.91 3.91 0 0 0 3.19-1.43 2.4 2.4 0 0 0 .51-1.9 2.79 2.79 0 0 0-1.86-1.93 3.4 3.4 0 0 1-.57-.31.59.59 0 0 1-.21-.58.64.64 0 0 1 .57-.43 4.5 4.5 0 0 0 1.33-.24 2.82 2.82 0 0 0 1.44-2.35 5 5 0 0 1 .4-.56 14.38 14.38 0 0 1 6.77 8.16 4.09 4.09 0 0 0-4 1.45c-.78 1-3.75 1.35-4.12 1.35a4.13 4.13 0 0 0-2.28.05A3.88 3.88 0 0 0 32 33.5a2.8 2.8 0 0 0-.07 2.18c.67 1.66 2.44 1.79 3.5 1.87a1.81 1.81 0 0 1 1.58.81 2.18 2.18 0 0 0 .92 2.49 3.82 3.82 0 0 0 2.25.77 2.7 2.7 0 0 0 2-.84 3.46 3.46 0 0 0 .82-1.62l-.45-.16H43s.31.11.59.23a14 14 0 0 1-1.47 2.29l-.29.37 1.9 1.51.29-.37a16.5 16.5 0 0 0 3.58-10.29 16.69 16.69 0 0 0-31.32-8Zm15.35-1.55a3 3 0 0 0 1.11 3.14 5.7 5.7 0 0 0 1 .56l.4.2a1.68 1.68 0 0 1-1.26.43h-.35a10 10 0 0 1-1.71-.5c-.34-.11-.69-.23-1-.32a1.7 1.7 0 0 0-.5-.06 3.5 3.5 0 0 0-1.42.38c-.09 0-.21.09-.32.12-.35-.19-.49-.66-.69-1.8a6.2 6.2 0 0 0-.38-1.54l-.21-.46-.47-.19a4.23 4.23 0 0 0-3 .27 5 5 0 0 1-1.1.33 4.35 4.35 0 0 1 .33-2 1 1 0 0 0 0-.15 14.49 14.49 0 0 1 13.19-2.39 10 10 0 0 0-.33 1.16 4 4 0 0 1-.13.59h-.7a3.07 3.07 0 0 0-2.46 2.23m7.52 14.11a4.09 4.09 0 0 0-3.58-2.15c-.67-.05-1.33-.12-1.42-.36a.42.42 0 0 1 .05-.3c.33-.77.62-.94.72-1a2.7 2.7 0 0 1 1 .07l.47.08a6.68 6.68 0 0 0 6-2.29 2.7 2.7 0 0 1 2.85-.33c0 .34-.06 1.09-.06 1.72a14.2 14.2 0 0 1-.62 4.17l-.42-.23a1.75 1.75 0 0 0-1.5-.37 2.44 2.44 0 0 0-1.76 1.5 4.3 4.3 0 0 0-.22.7 1.9 1.9 0 0 1-.25.62.6.6 0 0 1-.44 0 1.4 1.4 0 0 1-.59-.26 2.27 2.27 0 0 0-.23-1.57m-1.96 8.27a14.3 14.3 0 0 1-7.5 1.4 4.9 4.9 0 0 0 .73-1.43 3.17 3.17 0 0 0-1-3.45 3.4 3.4 0 0 0-2.66-.56 2.24 2.24 0 0 0-1.56.75 1.5 1.5 0 0 0-.15.28 1.15 1.15 0 0 1-.24-.4 3.74 3.74 0 0 0-2.91-2.56 3.13 3.13 0 0 0-4.49-2.29 14 14 0 0 1-.75-4.55v-1.17l-2.43-.13v1.3a16.71 16.71 0 0 0 16.68 16.69 16.5 16.5 0 0 0 7.36-1.71l.42-.2-1.08-2.17Zm-9.1-.73a4 4 0 0 1-1 1.45 1 1 0 0 0-.13.17 14.3 14.3 0 0 1-8.59-6.91.72.72 0 0 1 1.14.6 1.93 1.93 0 0 0 .32 1.08 1.78 1.78 0 0 0 1.26.71l.18.06c.81.37 1.16.72 1.23.93a3.39 3.39 0 0 0 2.5 2.27 2 2 0 0 0 2.32-1.34A1 1 0 0 1 28 44a.78.78 0 0 1 .09.82" class="cls-1"/></g></svg>