<svg xmlns="http://www.w3.org/2000/svg" width="64" height="64" preserveAspectRatio="xMinYMid" viewBox="0 0 64 64"><defs><style>.cls-1{fill:#0065ab}</style></defs><title>estilos iconos paraeducaand_escolares</title><g id="elements"><path d="M28 32.5a2.11 2.11 0 1 0-2.1-2.1 2.1 2.1 0 0 0 2.1 2.1m-6.43 0a2.11 2.11 0 1 0-2.1-2.1 2.11 2.11 0 0 0 2.1 2.1m12.84 0a2.11 2.11 0 1 0-2.11-2.1 2.1 2.1 0 0 0 2.11 2.1" class="cls-1"/><path d="M43.53 30.4c0-7.25-7-13.14-15.54-13.14S12.45 23.15 12.45 30.4A11.64 11.64 0 0 0 15 37.64l-1.7 6.09a1.1 1.1 0 0 0 1 1.4 1.1 1.1 0 0 0 .54-.14l5.6-3.1A17.9 17.9 0 0 0 28 43.53c8.56 0 15.53-5.89 15.53-13.13m-26.22 7.29a1.1 1.1 0 0 0-.22-1 9.6 9.6 0 0 1-2.44-6.27c0-6 6-10.93 13.34-10.93s13.34 4.9 13.34 10.93S35.34 41.33 28 41.33a15.5 15.5 0 0 1-7-1.67 1.08 1.08 0 0 0-1 0l-3.78 2.1Z" class="cls-1"/><path d="M50.5 40.63a10.55 10.55 0 0 0 1-4.62 10.71 10.71 0 0 0-5.72-9.49 1.1 1.1 0 1 0-1 1.95A8.51 8.51 0 0 1 48.37 40a1.06 1.06 0 0 0-.1.74l.67 3.13-2.28-.91a1.11 1.11 0 0 0-1 .12 8.67 8.67 0 0 1-9.48.09 1.14 1.14 0 0 0-.83-.16A1.1 1.1 0 0 0 35 45a10.9 10.9 0 0 0 11.42.21L50 46.66a1.2 1.2 0 0 0 .41.08 1.1 1.1 0 0 0 .71-.26 1.13 1.13 0 0 0 .37-1.08Z" class="cls-1"/><path d="M32 63.9A31.9 31.9 0 1 1 63.9 32 31.94 31.94 0 0 1 32 63.9m0-60.85A29 29 0 1 0 61 32 29 29 0 0 0 32 3.05" class="cls-1"/></g></svg>