<svg xmlns="http://www.w3.org/2000/svg" id="back" width="64" height="64" preserveAspectRatio="xMinYMid"><defs><style>.cls-1{fill:#002a56}</style></defs><title>estilos iconos paraeducaand_escolares</title><path d="M32 15.67a1.07 1.07 0 0 0 1.07-1.07v-4.25a1.08 1.08 0 0 0-2.15 0v4.25A1.08 1.08 0 0 0 32 15.67m-8.49 1.49a1.07 1.07 0 0 0 .93.54 1 1 0 0 0 .53-.15 1.07 1.07 0 0 0 .4-1.47l-2.12-3.67a1.08 1.08 0 0 0-1.87 1.08Zm-4.07 4.07-3.68-2.12A1.07 1.07 0 0 0 14.69 21l3.67 2.12a1.06 1.06 0 0 0 .54.14 1.07 1.07 0 0 0 .54-2ZM18 29.72a1.07 1.07 0 0 0-1.08-1.07h-4.29a1.08 1.08 0 0 0 0 2.15h4.24A1.08 1.08 0 0 0 18 29.72m.36 6.63-3.67 2.12a1.07 1.07 0 0 0-.39 1.47 1.05 1.05 0 0 0 .93.54 1.1 1.1 0 0 0 .53-.14l3.68-2.12a1.08 1.08 0 0 0-1.08-1.87m30.95 2.13-3.67-2.13a1.08 1.08 0 0 0-1.08 1.87l3.68 2.12a1 1 0 0 0 .53.14 1.07 1.07 0 0 0 .54-2m2.06-9.83h-4.24a1.08 1.08 0 1 0 0 2.15h4.24a1.08 1.08 0 0 0 0-2.15m-6.27-5.42a1.06 1.06 0 0 0 .54-.14L49.31 21a1.07 1.07 0 0 0 .39-1.47 1.06 1.06 0 0 0-1.46-.39l-3.68 2.12a1.07 1.07 0 0 0 .54 2ZM39 17.55a1 1 0 0 0 .53.15 1.07 1.07 0 0 0 .93-.54l2.13-3.67a1.08 1.08 0 0 0-1.87-1.08l-2.12 3.67a1.07 1.07 0 0 0 .4 1.47m-7 .51a11.69 11.69 0 0 0-11.68 11.68c0 3.52 1.54 5.65 2.9 7.53 1.15 1.59 2.14 3 2.28 5l.07 1.06a2 2 0 0 0 2 1.84h8.94a2 2 0 0 0 2-1.85l.06-1c.15-2.1 1.14-3.47 2.29-5.06 1.36-1.88 2.9-4 2.9-7.53A11.69 11.69 0 0 0 32 18.06m7 18a11.35 11.35 0 0 0-2.69 6.18l-.06.87h-8.54l-.06-.88A11.35 11.35 0 0 0 25 36c-1.28-1.77-2.49-3.44-2.49-6.27a9.53 9.53 0 0 1 19.06 0c-.04 2.84-1.25 4.51-2.57 6.27Z" class="cls-1"/><path d="M36.37 43.12h-8.74a1.08 1.08 0 1 0 0 2.15h8.74a1.08 1.08 0 1 0 0-2.15m0 2.71h-8.74a1.08 1.08 0 1 0 0 2.15h8.74a1.08 1.08 0 1 0 0-2.15m0 2.6h-8.74a1.08 1.08 0 1 0 0 2.15h8.74a1.08 1.08 0 1 0 0-2.15M32 21.45a8.28 8.28 0 0 0-8.27 8.27 1.08 1.08 0 1 0 2.15 0A6.13 6.13 0 0 1 32 23.6a1.08 1.08 0 0 0 0-2.15m-3.29 32.4a1.52 1.52 0 0 0 1.39.87h3.8a1.5 1.5 0 0 0 1.39-.87L36.64 51h-9.28Z" class="cls-1"/><path d="M61.12 2.93A9.74 9.74 0 0 0 54.2.07H9.8A9.78 9.78 0 0 0 0 9.83v44.34a9.76 9.76 0 0 0 9.8 9.76h44.4a9.78 9.78 0 0 0 9.8-9.76V9.83a9.66 9.66 0 0 0-2.88-6.9m-.18 6.9v44.34a6.74 6.74 0 0 1-6.74 6.72H9.8a6.73 6.73 0 0 1-6.73-6.72V9.83A6.75 6.75 0 0 1 9.8 3.11h44.4a6.74 6.74 0 0 1 6.74 6.72" class="cls-1"/></svg>