<svg xmlns="http://www.w3.org/2000/svg" width="64" height="64" preserveAspectRatio="xMinYMid" viewBox="0 0 64 64"><defs><style>.cls-1{fill:#5baf07}</style></defs><title>estilos iconos paraeducaand_escolares</title><path id="back" d="M61.74 26.47 37.67 2.39A7.86 7.86 0 0 0 32.1.09a7.87 7.87 0 0 0-5.59 2.31L2.4 26.52a7.89 7.89 0 0 0 0 11.15l24.07 24.08a7.89 7.89 0 0 0 11.15 0l24.12-24.13a7.89 7.89 0 0 0 0-11.15m-2.2 9L35.43 59.54A4.76 4.76 0 0 1 32 61a4.75 4.75 0 0 1-3.38-1.4L4.59 35.48a4.8 4.8 0 0 1 0-6.77L28.71 4.6a4.73 4.73 0 0 1 3.38-1.4 4.73 4.73 0 0 1 3.37 1.39l24.09 24.08a4.78 4.78 0 0 1-.01 6.76Z" class="cls-1"/><g id="elements"><path d="M29.68 15.28h.67a.5.5 0 0 0 .5-.5V12.6l1.86 2.48a.54.54 0 0 0 .4.2h.71a.5.5 0 0 0 .5-.5V10a.5.5 0 0 0-.5-.5h-.66a.5.5 0 0 0-.5.5v2.14l-1.81-2.42a.54.54 0 0 0-.41-.2h-.76a.51.51 0 0 0-.5.5v4.76a.51.51 0 0 0 .5.5m3.56 36.1a2.1 2.1 0 0 0-.5-.37 4 4 0 0 0-.57-.26l-.39-.16a1.3 1.3 0 0 1-.21-.12l-.06-.09.12-.14a1.1 1.1 0 0 1 .41 0l.26.06.25.07.19.08.72.34V49l-.31-.13a3 3 0 0 0-.58-.19 2.8 2.8 0 0 0-1.49 0 2 2 0 0 0-.65.35 1.65 1.65 0 0 0-.46.58 1.85 1.85 0 0 0 0 1.43 1.5 1.5 0 0 0 .35.52 2 2 0 0 0 .51.36l.58.26.37.15a1.2 1.2 0 0 1 .2.11l.06.14a.25.25 0 0 1 0 .16l-.09.05a.73.73 0 0 1-.41 0l-.3-.08-.28-.13-.21-.12-.79-.58v2l.22.15.34.18a3 3 0 0 0 .37.13l.42.08a3 3 0 0 0 .43 0 2.5 2.5 0 0 0 .86-.14 1.85 1.85 0 0 0 .66-.41 1.64 1.64 0 0 0 .41-.62 2 2 0 0 0 .14-.73 1.7 1.7 0 0 0-.12-.67 1.7 1.7 0 0 0-.45-.47m18.53-18.59v-1.61H50.1v-.44h1.66v-1.62h-3.37v5.76h3.38v-1.61H50.1v-.48zm-39.14-3.72c-1.42 0-2.34 1.15-2.34 2.93s.92 3 2.34 3S15 33.8 15 32s-1-2.93-2.37-2.93m0 4.26c-.41 0-.59-.67-.59-1.33s.16-1.3.59-1.3.59.7.59 1.3-.22 1.33-.59 1.33" class="cls-1"/><path d="M32 16.41A15.59 15.59 0 1 0 47.59 32 15.62 15.62 0 0 0 32 16.41M45.37 32A13.37 13.37 0 1 1 32 18.63 13.39 13.39 0 0 1 45.37 32" class="cls-1"/><path d="M33.5 20.07a.5.5 0 0 0-.37.12.48.48 0 0 0-.16.35v1.23a.48.48 0 0 0 .41.47 9.87 9.87 0 0 1 8.42 8.6V31a.47.47 0 0 0 .47.41h1.23a.47.47 0 0 0 .35-.15.5.5 0 0 0 .12-.37v-.16A12 12 0 0 0 33.5 20.07M20.49 31.38h1.23a.47.47 0 0 0 .47-.41v-.13a9.87 9.87 0 0 1 8.42-8.6.48.48 0 0 0 .41-.47v-1.23a.48.48 0 0 0-.16-.35.5.5 0 0 0-.37-.12A12 12 0 0 0 20 30.7v.16a.5.5 0 0 0 .12.37.47.47 0 0 0 .37.15m10.13 10.38a9.87 9.87 0 0 1-8.42-8.59V33a.47.47 0 0 0-.47-.41h-1.24a.47.47 0 0 0-.35.15.5.5 0 0 0-.12.37v.16A12 12 0 0 0 30.5 43.93h.06a.47.47 0 0 0 .31-.12.48.48 0 0 0 .16-.35v-1.23a.47.47 0 0 0-.41-.47m12.89-9.14h-1.23a.47.47 0 0 0-.47.41v.14a9.87 9.87 0 0 1-8.42 8.59.47.47 0 0 0-.41.47v1.23a.48.48 0 0 0 .16.35.47.47 0 0 0 .31.12h.06A12 12 0 0 0 44 33.3v-.16a.5.5 0 0 0-.12-.37.47.47 0 0 0-.37-.15m-9.51.71 2.2-6.22a.41.41 0 0 0-.16-.49.41.41 0 0 0-.51 0l-4.91 4.41a.45.45 0 0 0-.11.17l-2.2 6.22a.41.41 0 0 0 .16.49.4.4 0 0 0 .23.07.38.38 0 0 0 .28-.11l4.91-4.41a.5.5 0 0 0 .11-.13" class="cls-1"/></g></svg>