<svg xmlns="http://www.w3.org/2000/svg" width="64" height="64" preserveAspectRatio="xMinYMid" viewBox="0 0 64 64"><defs><style>.cls-2{fill:#0065ab;stroke:#0065ab;stroke-miterlimit:10;stroke-width:.5px}</style></defs><title>estilos iconos paraeducaand_escolares</title><g id="elements"><path d="M32 63.9A31.9 31.9 0 1 1 63.9 32 31.94 31.94 0 0 1 32 63.9m0-60.85A29 29 0 1 0 61 32 29 29 0 0 0 32 3.05" style="fill:#0065ab"/><path d="m46.11 21.43.19.42.45-.12.47-.1.7-.13-.29-.64a17.5 17.5 0 0 0-8.14-8.47l-.75-.39-.05.83v.5l-.06.39.35.18a15.9 15.9 0 0 1 7.13 7.53ZM25.78 44.35l.1-.69c0-.17.05-.33.08-.48l.11-.45-.43-.18a16 16 0 0 1-3.81-2.29l-.15-.12h-2.47l1.11 1a17.6 17.6 0 0 0 4.81 3Zm-9.05-22.62.45.12.19-.42a15.86 15.86 0 0 1 8.13-8l.36-.16v-1.73l-.86.36a17.45 17.45 0 0 0-9.19 9l-.29.64.7.13Z" class="cls-2"/><path d="M36.87 49.5h-3.56a5.49 5.49 0 1 0-3.66 0h-2.71a3.8 3.8 0 0 0-3.79 3.8v4h1.62v-4a2.18 2.18 0 0 1 2.17-2.18h9.6a2.19 2.19 0 0 1 2.18 2.18v4h1.61v-4a3.77 3.77 0 0 0-3.46-3.8Zm-1.53-5.18a3.86 3.86 0 1 1-3.86-3.86 3.87 3.87 0 0 1 3.86 3.86Zm-12.71-7.65v4h1.62v-4a3.8 3.8 0 0 0-3.8-3.79h-3.22a5.48 5.48 0 1 0-3.67 0h-2.71a3.79 3.79 0 0 0-3.79 3.79v4h1.62v-4a2.17 2.17 0 0 1 2.17-2.17h9.6a2.18 2.18 0 0 1 2.18 2.17Zm-3.37-9a3.87 3.87 0 1 1-3.87-3.86 3.87 3.87 0 0 1 3.87 3.91Zm10.91-10.36h-2.71a3.79 3.79 0 0 0-3.79 3.79v4h1.62v-4a2.17 2.17 0 0 1 2.17-2.17h9.6a2.17 2.17 0 0 1 2.17 2.17v4h1.62v-4a3.79 3.79 0 0 0-3.79-3.79h-3.23a5.48 5.48 0 1 0-3.66 0Zm-2-5.16A3.86 3.86 0 1 1 32 16a3.86 3.86 0 0 1-3.86-3.85Zm24.98 20.73h-3.23a5.48 5.48 0 1 0-3.66 0h-2.71a3.8 3.8 0 0 0-3.8 3.79v4H41a16.4 16.4 0 0 1-2.28 1.42l-.41.2.12.44c0 .16.09.31.13.47l.14.7.64-.31a18 18 0 0 0 3.81-2.53l1.1-1H41.8l-.15.12c-.09.08-.19.14-.28.21v-3.8a2.18 2.18 0 0 1 2.18-2.17h9.6a2.17 2.17 0 0 1 2.17 2.17v4h1.62v-4a3.79 3.79 0 0 0-3.79-3.71ZM52 27.72a3.86 3.86 0 1 1-3.86-3.86A3.86 3.86 0 0 1 52 27.72Z" class="cls-2"/></g></svg>