<svg xmlns="http://www.w3.org/2000/svg" width="64" height="64" preserveAspectRatio="xMinYMid"><defs><style>.cls-1{fill:#002a56}</style></defs><title>estilos iconos paraeducaand_escolares</title><path id="back" d="M61.88 26.47 37.8 2.39a7.86 7.86 0 0 0-5.57-2.3 7.87 7.87 0 0 0-5.59 2.31L2.53 26.52a7.89 7.89 0 0 0 0 11.15L26.6 61.75a7.89 7.89 0 0 0 11.15 0l24.12-24.13a7.9 7.9 0 0 0 .01-11.15m-2.21 9L35.56 59.54A4.76 4.76 0 0 1 32.17 61a4.77 4.77 0 0 1-3.38-1.4L4.72 35.48a4.8 4.8 0 0 1 0-6.77L28.84 4.6a4.73 4.73 0 0 1 3.38-1.4 4.73 4.73 0 0 1 3.38 1.39l24.08 24.08a4.78 4.78 0 0 1-.01 6.76Z" class="cls-1"/><g id="elements"><path d="M32 14.82A17.18 17.18 0 1 0 49.18 32 17.2 17.2 0 0 0 32 14.82M30.93 43v3.78a14.83 14.83 0 0 1-13.71-13.72h3.85v-2.12h-3.85a14.83 14.83 0 0 1 13.71-13.72v3.85h2.13v-3.85a14.84 14.84 0 0 1 13.72 13.72h-3.84v2.12h3.84a14.84 14.84 0 0 1-13.72 13.72V43Z" class="cls-1"/><path d="M34.44 32.67a2 2 0 0 0 0-.35L39.69 27a1.39 1.39 0 0 0 0-2 1.39 1.39 0 0 0-2 0l-5.19 5.29a2.5 2.5 0 0 0-1.09 0l-7.22-7.21a1.39 1.39 0 0 0-2 2l7.35 7.35a2 2 0 0 0 0 .26 2.44 2.44 0 1 0 4.88 0Zm4.88-7.25" class="cls-1"/></g></svg>