<svg xmlns="http://www.w3.org/2000/svg" width="64" height="64" preserveAspectRatio="xMinYMid"><defs><style>.cls-1{fill:#002a56}</style></defs><title>nuevos iconos_</title><g id="elements"><path d="M30.08 60A29.92 29.92 0 1 1 60 30.08 30 30 0 0 1 30.08 60m0-57.07a27.15 27.15 0 1 0 27.15 27.15A27.18 27.18 0 0 0 30.08 2.93" class="cls-1"/><path d="M30.93 32.56A2.56 2.56 0 1 0 28.38 30a2.56 2.56 0 0 0 2.55 2.56m-7.78 0A2.56 2.56 0 1 0 20.59 30a2.56 2.56 0 0 0 2.56 2.56m15.57 0A2.56 2.56 0 1 0 36.17 30a2.55 2.55 0 0 0 2.55 2.56" class="cls-1"/><path d="M49.79 30c0-8.79-8.46-15.94-18.86-15.94S12.08 21.22 12.08 30a14.08 14.08 0 0 0 3.14 8.78l-2.12 7.4a1.33 1.33 0 0 0 .46 1.42 1.33 1.33 0 0 0 1.48.12L21.83 44a21.7 21.7 0 0 0 9.1 2c10.4-.06 18.86-7.21 18.86-16M18 38.85a1.33 1.33 0 0 0-.28-1.24A11.57 11.57 0 0 1 14.75 30c0-7.31 7.26-13.26 16.18-13.26S47.11 22.7 47.11 30s-7.25 13.27-16.18 13.27a18.8 18.8 0 0 1-8.53-2 1.34 1.34 0 0 0-1.26 0l-4.58 2.55Z" class="cls-1"/></g></svg>