<svg xmlns="http://www.w3.org/2000/svg" width="64" height="64" preserveAspectRatio="xMinYMid"><title>estilos iconos paraeducaand_escolares</title><path d="M61.12 2.93A9.74 9.74 0 0 0 54.2.07H9.8A9.78 9.78 0 0 0 0 9.83v44.34a9.76 9.76 0 0 0 9.8 9.76h44.4a9.78 9.78 0 0 0 9.8-9.76V9.83a9.66 9.66 0 0 0-2.88-6.9m-.18 6.9v44.34a6.74 6.74 0 0 1-6.74 6.72H9.8a6.73 6.73 0 0 1-6.73-6.72V9.83A6.75 6.75 0 0 1 9.8 3.11h44.4a6.74 6.74 0 0 1 6.74 6.72" style="fill:#002a56"/><path d="M37.79 49.88v-.06a1.74 1.74 0 0 1 .48-1.18l8.19-9.92h-7.29A1.13 1.13 0 0 1 38 37.6a1.15 1.15 0 0 1 1.13-1.15h9.56a1.15 1.15 0 0 1 1.14 1.13v.06a1.87 1.87 0 0 1-.45 1.18l-8.18 9.92h7.57a1.15 1.15 0 0 1 1.14 1.14A1.13 1.13 0 0 1 48.77 51h-9.83a1.17 1.17 0 0 1-1.15-1.12Zm-.92-23.79L42.27 14a1.65 1.65 0 0 1 1.54-1h.13a1.6 1.6 0 0 1 1.52 1l5.4 12.06a1.19 1.19 0 0 1-1.06 1.77 1.32 1.32 0 0 1-1.25-.9l-1.18-2.72H40.3l-1.23 2.81a1.22 1.22 0 0 1-1.18.81 1.17 1.17 0 0 1-1.19-1.19 1.3 1.3 0 0 1 .17-.55ZM46.39 22l-2.56-5.89L41.28 22ZM32.83 39.87a1.19 1.19 0 0 0-1.68 0l-6.87 7V14.18a1.19 1.19 0 0 0-2.38 0v32.73l-6.87-7a1.19 1.19 0 1 0-1.7 1.66l8.91 9.1a1.18 1.18 0 0 0 .85.36 1.2 1.2 0 0 0 .85-.36l8.91-9.1a1.19 1.19 0 0 0-.02-1.7Z" style="fill:#002a56;stroke:#002a56;stroke-miterlimit:10;stroke-width:.5px"/></svg>