<svg xmlns="http://www.w3.org/2000/svg" width="64" height="64" preserveAspectRatio="xMinYMid" viewBox="0 0 64 64"><defs><style>.cls-1{fill:#0065ab}</style></defs><title>estilos iconos paraeducaand_escolares</title><g id="elements"><path d="M32 63.9A31.9 31.9 0 1 1 63.9 32 31.94 31.94 0 0 1 32 63.9m0-60.85A29 29 0 1 0 61 32 29 29 0 0 0 32 3.05" class="cls-1"/><path d="M26.36 18.08a1.6 1.6 0 0 0-1.06 1.51v21.12a6.59 6.59 0 1 0-4.25 11.71 6.66 6.66 0 0 0 6.69-6.69V25.36L43 19.56v14.55a6.59 6.59 0 1 0 2.44 5V13.18a1.59 1.59 0 0 0-2.13-1.5ZM21.14 50a4.15 4.15 0 1 1 4.16-4.15A4.15 4.15 0 0 1 21.14 50M43 17l-15.27 5.8v-2.62L43 14.38zm-4.14 26.38A4.15 4.15 0 1 1 43 39.23a4.16 4.16 0 0 1-4.14 4.15" class="cls-1"/></g></svg>