<svg xmlns="http://www.w3.org/2000/svg" width="64" height="64" preserveAspectRatio="xMinYMid" viewBox="0 0 64 64"><defs><clipPath id="clip-path"><path d="M.02.07h63.96v63.86H.02z" style="fill:none"/></clipPath><style>.cls-2{fill:#a25ac4}</style></defs><title>lengua de signos</title><g id="elements"><g id="CvqpxA.tif"><path d="m51.49 52.64-.14-.12c-1.72-1.32-3.46-2.63-5.16-4-2.11-1.64-4.24-3.24-6.24-5a2 2 0 0 0-.82-.4c-.43-.11-.89-.14-1.33-.21a31 31 0 0 1-4-1 27.5 27.5 0 0 1-5.72-2.36A13 13 0 0 0 24 38.08a47 47 0 0 0-6.15-.61 65 65 0 0 1-3.15-.3 4.3 4.3 0 0 1-1.74-.57 1.3 1.3 0 0 1-.61-.71.64.64 0 0 1 .38-.9 1.8 1.8 0 0 1 .51-.16 8 8 0 0 1 1.55-.14c1.68.07 3.36.21 5 .28 1.28.05 2.56.06 3.83.05a5.7 5.7 0 0 0 1.16-.16.66.66 0 0 0 .59-.55c.09-.74 0-.93-.54-1.25a2 2 0 0 0-.31-.16c-.72-.32-1.44-.66-2.18-.94-2.1-.78-4.21-1.58-6.25-2.5A13.6 13.6 0 0 1 13 27.71a3.3 3.3 0 0 1-.76-.86.84.84 0 0 1 .61-1.27 1.6 1.6 0 0 1 .43 0 6 6 0 0 1 1.74.58c2.81 1.24 5.67 2.32 8.59 3.28a11 11 0 0 0 1.52.35.41.41 0 0 0 .47-.21.51.51 0 0 0 0-.6 2.8 2.8 0 0 0-.47-.5 12 12 0 0 0-1.24-.88c-2-1.2-4-2.36-6-3.56-1.09-.66-2.17-1.35-3.24-2.05a7 7 0 0 1-1-.91.88.88 0 0 1-.24-.79 1 1 0 0 1 1.28-.8 7.2 7.2 0 0 1 2.31.82c2.71 1.36 5.41 2.74 8 4.34a21 21 0 0 0 2.31 1.16 1.65 1.65 0 0 0 .77.12.57.57 0 0 0 .52-.77 3.5 3.5 0 0 0-.52-1 21 21 0 0 0-1.61-1.76 44.4 44.4 0 0 0-6.41-4.93 10.5 10.5 0 0 1-1.32-1 1.9 1.9 0 0 1-.55-.77.84.84 0 0 1 .84-1.2 5.3 5.3 0 0 1 1.75.45 27 27 0 0 1 3.71 1.86 38 38 0 0 1 5.27 3.62c1.14 1 2.31 1.89 3.49 2.8a7.35 7.35 0 0 0 2.89 1.44 3.2 3.2 0 0 0 .87.07c.32 0 .45-.17.44-.5a2.7 2.7 0 0 0-.09-.7c-.28-1.07-.58-2.14-.85-3.21a7.4 7.4 0 0 1-.28-2.56 3.21 3.21 0 0 1 2.58-2.84c.39-.07.59.06.65.46a5 5 0 0 1 0 .76 8.5 8.5 0 0 0 .4 2.83 35.4 35.4 0 0 0 2.38 6 8.6 8.6 0 0 1 .76 1.71c.29 1.13.58 2.27.76 3.43a5.83 5.83 0 0 0 2 3.41 16 16 0 0 0 1.25 1.1c1.63 1.29 3.26 2.55 4.9 3.82l1.23 1V33h-.24l-5.5.16a.5.5 0 0 1-.33-.09c-.46-.45-.92-.9-1.33-1.39a2.3 2.3 0 0 1-.51-.88c-.29-1.14-.54-2.29-.78-3.44a11 11 0 0 0-1-3 31.6 31.6 0 0 1-2.19-5.48 8 8 0 0 1-.54-2.88 5 5 0 0 0 0-.64 1.67 1.67 0 0 0-2-1.64 4.6 4.6 0 0 0-3 2 4.78 4.78 0 0 0-.61 3.14 18.4 18.4 0 0 0 .77 3.52c.1.32.19.64.28 1l-.05.06a8 8 0 0 1-1-.48c-.79-.52-1.57-1.05-2.3-1.63-1.09-.85-2.12-1.77-3.2-2.62a38 38 0 0 0-4.62-3 27 27 0 0 0-3.77-1.86 6 6 0 0 0-2.24-.51 1.87 1.87 0 0 0-1.79 1.2 2.21 2.21 0 0 0 .44 2.46A7.8 7.8 0 0 0 19 18.17a48 48 0 0 1 6.33 4.75c.23.2.23.25.09.55l-.19-.1a64 64 0 0 0-5.61-3.11c-1-.51-2.05-1-3.09-1.51a4.9 4.9 0 0 0-2.16-.5 2.16 2.16 0 0 0-2.11 2.56 2.55 2.55 0 0 0 1 1.55 23 23 0 0 0 2.21 1.58C17.19 25 19 26 20.7 27l.19.13a.6.6 0 0 1-.27-.07l-5.55-2.25a4.84 4.84 0 0 0-2.18-.47A2.1 2.1 0 0 0 11 26.63a2.52 2.52 0 0 0 1 1.71 10 10 0 0 0 1.33 1 30 30 0 0 0 4.48 2.13l.19.09a.2.2 0 0 1-.13 0l-2.05-.46a6.6 6.6 0 0 0-2.07-.27A1.5 1.5 0 0 0 13 31a.73.73 0 0 0-.09 1.27 1.7 1.7 0 0 0 .43.28c.62.27 1.25.52 1.88.77l.23.09c-.62 0-1.18 0-1.74.08a4 4 0 0 0-1.59.41 1.81 1.81 0 0 0-1 2 2.38 2.38 0 0 0 1.19 1.72 6.9 6.9 0 0 0 2.8.85l.5.07c-.85.16-1.7.29-2.54.45a2.7 2.7 0 0 0-1.23.51.88.88 0 0 0-.33 1 1.1 1.1 0 0 0 .77.71 4.7 4.7 0 0 0 1.48.22 23 23 0 0 0 3.3-.3c1.52-.2 3-.39 4.57-.55.91-.11 1.83-.18 2.75-.24a3.5 3.5 0 0 1 .9.12c.3.08.37.37.41.65s-.15.33-.31.42a6 6 0 0 1-.8.39 37 37 0 0 1-4.72 1.38c-1.5.36-3 .7-4.49 1.08a4.8 4.8 0 0 0-1.2.5c-.4.23-.41.63-.33 1s.34.45.64.52a5.7 5.7 0 0 0 1.85 0 36 36 0 0 0 4.5-.83c1.81-.45 3.62-.91 5.44-1.35a7 7 0 0 1 1.18-.18c.49 0 .72.29.55.75a1.3 1.3 0 0 1-.3.53 10 10 0 0 1-1.09 1 16 16 0 0 1-3.25 1.71c-1.06.44-2.13.83-3.19 1.25a5 5 0 0 0-.84.47.61.61 0 0 0-.23.72.69.69 0 0 0 .55.56 4 4 0 0 0 .47.05 8.2 8.2 0 0 0 2.36-.33 23 23 0 0 0 6.37-2.83 4 4 0 0 1 1.53-.64c.77-.13 1.54-.27 2.31-.36a23.5 23.5 0 0 0 7.06-1.79.27.27 0 0 1 .31.05c.83.67 1.66 1.35 2.5 2 2.27 1.78 4.54 3.54 6.81 5.31a.5.5 0 0 0 .24.11Z" class="cls-2"/><path d="M51.49 52.64h-1.92a.5.5 0 0 1-.24-.11c-2.27-1.77-4.54-3.53-6.81-5.31-.84-.66-1.67-1.34-2.5-2a.27.27 0 0 0-.31-.05 23.5 23.5 0 0 1-7.06 1.79c-.77.09-1.54.23-2.31.36a4 4 0 0 0-1.53.64 23 23 0 0 1-6.37 2.83 8.2 8.2 0 0 1-2.36.33 4 4 0 0 1-.47-.05.69.69 0 0 1-.55-.56.61.61 0 0 1 .23-.72 5 5 0 0 1 .84-.47c1.06-.42 2.13-.81 3.19-1.25a16 16 0 0 0 3.25-1.71 10 10 0 0 0 1.09-1 1.3 1.3 0 0 0 .3-.53c.17-.46-.06-.78-.55-.75a7 7 0 0 0-1.18.18c-1.82.44-3.63.9-5.44 1.35a36 36 0 0 1-4.5.83 5.7 5.7 0 0 1-1.85 0c-.3-.07-.58-.16-.64-.52s-.07-.81.33-1a4.8 4.8 0 0 1 1.2-.5c1.49-.38 3-.72 4.49-1.08a37 37 0 0 0 4.72-1.38 6 6 0 0 0 .8-.39c.16-.09.34-.19.31-.42s-.11-.57-.41-.65a3.5 3.5 0 0 0-.9-.12c-.92.06-1.84.13-2.75.24-1.53.16-3.05.35-4.57.55a23 23 0 0 1-3.3.3 4.7 4.7 0 0 1-1.48-.22 1.1 1.1 0 0 1-.77-.71.88.88 0 0 1 .33-1A2.7 2.7 0 0 1 13 39c.84-.16 1.69-.29 2.54-.45l-.5-.07a6.9 6.9 0 0 1-2.8-.85 2.38 2.38 0 0 1-1.19-1.72 1.81 1.81 0 0 1 1-2 4 4 0 0 1 1.59-.41c.56 0 1.12-.05 1.74-.08l-.23-.09c-.63-.25-1.26-.5-1.88-.77a1.7 1.7 0 0 1-.43-.28A.73.73 0 0 1 13 31a1.5 1.5 0 0 1 .69-.19 6.6 6.6 0 0 1 2.07.27l2.05.46a.2.2 0 0 0 .13 0l-.19-.09a30 30 0 0 1-4.48-2.13 10 10 0 0 1-1.33-1 2.52 2.52 0 0 1-1-1.71 2.1 2.1 0 0 1 1.93-2.27 4.84 4.84 0 0 1 2.18.47l5.55 2.25a.6.6 0 0 0 .27.07L20.7 27c-1.75-1-3.51-2-5.24-3.08a23 23 0 0 1-2.21-1.58 2.55 2.55 0 0 1-1-1.55 2.16 2.16 0 0 1 2.11-2.56 4.9 4.9 0 0 1 2.16.5c1 .48 2.06 1 3.09 1.51a64 64 0 0 1 5.61 3.11l.19.1c.14-.3.14-.35-.09-.55A48 48 0 0 0 19 18.17 7.8 7.8 0 0 1 17.63 17a2.21 2.21 0 0 1-.51-2.56 1.87 1.87 0 0 1 1.79-1.2 6 6 0 0 1 2.24.51 27 27 0 0 1 3.77 1.86 38 38 0 0 1 4.62 3c1.08.85 2.11 1.77 3.2 2.62.73.58 1.51 1.11 2.3 1.63a8 8 0 0 0 1 .48l.05-.06-.28-1a18.4 18.4 0 0 1-.77-3.52 4.78 4.78 0 0 1 .61-3.14 4.6 4.6 0 0 1 3-2 1.67 1.67 0 0 1 2 1.64 5 5 0 0 1 0 .64 8 8 0 0 0 .45 2.92 31.6 31.6 0 0 0 2.19 5.48 11 11 0 0 1 1 3c.24 1.15.49 2.3.78 3.44a2.3 2.3 0 0 0 .51.88c.41.49.87.94 1.33 1.39a.5.5 0 0 0 .33.09l5.5-.16h.24v6.39l-1.23-1c-1.64-1.27-3.27-2.53-4.9-3.82a16 16 0 0 1-1.25-1.1 5.83 5.83 0 0 1-2-3.41c-.18-1.16-.47-2.3-.76-3.43a8.6 8.6 0 0 0-.55-1.57 35.4 35.4 0 0 1-2.38-6 8.5 8.5 0 0 1-.4-2.83 5 5 0 0 0 0-.76c-.06-.4-.26-.53-.65-.46a3.21 3.21 0 0 0-2.58 2.84 7.4 7.4 0 0 0 .28 2.56c.27 1.07.57 2.14.85 3.21a2.7 2.7 0 0 1 .09.7c0 .33-.12.49-.44.5a3.2 3.2 0 0 1-.87-.07 7.35 7.35 0 0 1-2.89-1.44c-1.18-.91-2.35-1.84-3.49-2.8a38 38 0 0 0-5.27-3.62 27 27 0 0 0-3.71-1.86 5.3 5.3 0 0 0-1.83-.49.84.84 0 0 0-.84 1.2 1.9 1.9 0 0 0 .55.77 10.5 10.5 0 0 0 1.32 1 44.4 44.4 0 0 1 6.41 4.93 21 21 0 0 1 1.61 1.76 3.5 3.5 0 0 1 .52 1 .57.57 0 0 1-.52.77 1.65 1.65 0 0 1-.77-.12A21 21 0 0 1 25 24.63c-2.58-1.6-5.28-3-8-4.34a7.2 7.2 0 0 0-2.31-.82 1 1 0 0 0-1.28.8.88.88 0 0 0 .24.79 7 7 0 0 0 1 .91c1.07.7 2.15 1.39 3.24 2.05 2 1.2 4 2.36 6 3.56a12 12 0 0 1 1.24.88 2.8 2.8 0 0 1 .47.5.51.51 0 0 1 0 .6.41.41 0 0 1-.47.21 11 11 0 0 1-1.52-.35c-2.92-1-5.78-2-8.59-3.28a6 6 0 0 0-1.74-.58 1.6 1.6 0 0 0-.43 0 .84.84 0 0 0-.61 1.27 3.3 3.3 0 0 0 .76.86 13.6 13.6 0 0 0 3.06 1.75c2 .92 4.15 1.72 6.25 2.5.74.28 1.46.62 2.18.94a2 2 0 0 1 .31.16c.56.32.63.51.54 1.25a.66.66 0 0 1-.59.55 5.7 5.7 0 0 1-1.16.16c-1.27 0-2.55 0-3.83-.05-1.68-.07-3.36-.21-5-.28a8 8 0 0 0-1.55.14 1.8 1.8 0 0 0-.51.16.64.64 0 0 0-.38.9 1.3 1.3 0 0 0 .61.71 4.3 4.3 0 0 0 1.74.57c1 .12 2.09.23 3.15.3a47 47 0 0 1 6.15.61 13 13 0 0 1 4.11 1.48 27.5 27.5 0 0 0 5.72 2.36 31 31 0 0 0 4 1c.44.07.9.1 1.33.21a2 2 0 0 1 .82.4c2 1.77 4.13 3.37 6.24 5 1.7 1.34 3.44 2.65 5.16 4Z" class="cls-2"/></g><g style="clip-path:url(#clip-path)"><path d="M60.94 9.83v44.33a6.74 6.74 0 0 1-6.74 6.73H9.8a6.73 6.73 0 0 1-6.73-6.73V9.83A6.75 6.75 0 0 1 9.8 3.11h44.4a6.74 6.74 0 0 1 6.74 6.72m.18-6.9A9.74 9.74 0 0 0 54.2.07H9.8A9.78 9.78 0 0 0 0 9.83v44.33a9.76 9.76 0 0 0 9.8 9.77h44.4a9.78 9.78 0 0 0 9.8-9.77V9.83a9.66 9.66 0 0 0-2.86-6.9" style="fill:#a359c4"/></g></g></svg>