<svg xmlns="http://www.w3.org/2000/svg" width="64" height="64" preserveAspectRatio="xMinYMid" viewBox="0 0 64 64"><defs><style>.cls-1{fill:#a25ac4}</style></defs><title>estilos iconos paraeducaand_escolares</title><path d="M51.79 19.08h-1.44a1.26 1.26 0 0 0 0 2.52h.19v23.13a.12.12 0 0 1-.12.12H37.89a31.6 31.6 0 0 1 8.94-1.48 1.9 1.9 0 0 0 1.88-1.9V18.52a1.84 1.84 0 0 0-.56-1.34 1.86 1.86 0 0 0-1.35-.55A32.9 32.9 0 0 0 32 20.45a32.74 32.74 0 0 0-14.82-3.82 1.84 1.84 0 0 0-1.33.55 1.9 1.9 0 0 0-.56 1.34v23a1.9 1.9 0 0 0 1.88 1.9 31.6 31.6 0 0 1 8.94 1.48H13.58a.12.12 0 0 1-.12-.12V21.6h.19a1.26 1.26 0 0 0 0-2.52h-1.44A1.26 1.26 0 0 0 11 20.34v24.39a2.64 2.64 0 0 0 2.63 2.64h36.79a2.64 2.64 0 0 0 2.63-2.64V20.34a1.26 1.26 0 0 0-1.26-1.26m-5.59.08v21.71A32.8 32.8 0 0 0 33.26 44V22.62a29.9 29.9 0 0 1 12.94-3.46m-15.46 3.46V44a32.8 32.8 0 0 0-12.94-3.13V19.16a30 30 0 0 1 12.94 3.46" class="cls-1"/><path d="M61.12 2.93A9.74 9.74 0 0 0 54.2.07H9.8A9.78 9.78 0 0 0 0 9.83v44.34a9.76 9.76 0 0 0 9.8 9.76h44.4a9.78 9.78 0 0 0 9.8-9.76V9.83a9.66 9.66 0 0 0-2.88-6.9m-.18 6.9v44.34a6.74 6.74 0 0 1-6.74 6.72H9.8a6.73 6.73 0 0 1-6.73-6.72V9.83A6.75 6.75 0 0 1 9.8 3.11h44.4a6.74 6.74 0 0 1 6.74 6.72" class="cls-1"/></svg>