<svg xmlns="http://www.w3.org/2000/svg" width="64" height="64" preserveAspectRatio="xMinYMid" viewBox="0 0 64 64"><defs><style>.cls-2{fill:#a25ac4;stroke:#a25ac4;stroke-miterlimit:10;stroke-width:.5px}</style></defs><title>estilos iconos paraeducaand_escolares</title><path id="back" d="M61.23 2.86A9.7 9.7 0 0 0 54.31 0H9.91A9.78 9.78 0 0 0 .13 9.76v44.33a9.76 9.76 0 0 0 9.78 9.77h44.4a9.78 9.78 0 0 0 9.78-9.77V9.76a9.66 9.66 0 0 0-2.86-6.9m-.18 6.9v44.33a6.74 6.74 0 0 1-6.74 6.73H9.91a6.73 6.73 0 0 1-6.73-6.73V9.76A6.74 6.74 0 0 1 9.91 3h44.4a6.74 6.74 0 0 1 6.74 6.72Z" style="fill:#a25ac4"/><g id="elements"><path d="m46.22 21.36.19.42.45-.12.48-.1.69-.13-.29-.64a17.5 17.5 0 0 0-8.14-8.47l-.74-.32-.06.82a4 4 0 0 1 0 .51l-.06.39.35.18a15.9 15.9 0 0 1 7.13 7.46ZM25.89 44.28l.1-.69c0-.17.05-.33.08-.48l.11-.45-.43-.18a16 16 0 0 1-3.81-2.29l-.15-.12h-2.47l1.11 1a17.5 17.5 0 0 0 4.81 3Zm-9.04-22.62.44.12.19-.42a15.86 15.86 0 0 1 8.13-8l.36-.16v-1.73l-.77.32a17.4 17.4 0 0 0-9.18 9l-.3.64.7.13Z" class="cls-2"/><path d="M37 49.43h-3.58a5.49 5.49 0 1 0-3.65 0h-2.72a3.8 3.8 0 0 0-3.79 3.8v4h1.62v-4A2.18 2.18 0 0 1 27.05 51h9.6a2.19 2.19 0 0 1 2.18 2.18v4h1.62v-4A3.78 3.78 0 0 0 37 49.43Zm-1.53-5.18a3.86 3.86 0 1 1-3.86-3.86 3.87 3.87 0 0 1 3.84 3.86ZM22.74 36.6v4h1.62v-4a3.79 3.79 0 0 0-3.79-3.79h-3.23a5.48 5.48 0 1 0-3.66 0H11a3.8 3.8 0 0 0-3.8 3.79v4h1.59v-4A2.18 2.18 0 0 1 11 34.43h9.6a2.17 2.17 0 0 1 2.14 2.17Zm-3.37-9a3.86 3.86 0 1 1-3.86-3.86 3.86 3.86 0 0 1 3.86 3.91Zm10.91-10.36h-2.71A3.79 3.79 0 0 0 23.78 21v4h1.62v-4a2.17 2.17 0 0 1 2.17-2.17h9.6A2.18 2.18 0 0 1 39.35 21v4H41v-4a3.79 3.79 0 0 0-3.79-3.79h-3.27a5.48 5.48 0 1 0-3.66 0Zm-2-5.16a3.86 3.86 0 1 1 3.86 3.86 3.86 3.86 0 0 1-3.89-3.86Zm24.98 20.73H50a5.48 5.48 0 1 0-3.66 0h-2.68a3.8 3.8 0 0 0-3.8 3.79v4h1.27a15.4 15.4 0 0 1-2.28 1.41l-.41.21.13.44.12.47.14.7.64-.31A18 18 0 0 0 43.28 41l1.1-1h-2.46l-.15.12a3 3 0 0 1-.29.21V36.6a2.18 2.18 0 0 1 2.18-2.17h9.6a2.17 2.17 0 0 1 2.17 2.17v4h1.62v-4a3.79 3.79 0 0 0-3.79-3.79Zm-1.2-5.16a3.86 3.86 0 1 1-3.86-3.86 3.86 3.86 0 0 1 3.86 3.86Z" class="cls-2"/></g></svg>