<svg xmlns="http://www.w3.org/2000/svg" width="64" height="64" preserveAspectRatio="xMinYMid" viewBox="0 0 64 64"><title>estilos iconos paraeducaand_escolares</title><path d="M32 63.9A31.9 31.9 0 1 1 63.9 32 31.94 31.94 0 0 1 32 63.9m0-60.85A29 29 0 1 0 61 32 29 29 0 0 0 32 3.05" style="fill:#0065ab"/><g fill="#0065ab" stroke-width=".265"><path d="M18.02 31.339h1.9c1 0 1.7-1 1.7-2.2v-9.2c0-4.7 4.7-8.4 10.5-8.4s10.5 3.8 10.5 8.4v9.2c0 1.3.7 2.2 1.7 2.2h1.9c1 0 1.7-1 1.7-2.2v-8.4c0-1.3-.7-2.2-1.7-2.2h-2c-.7-5-5.9-8.9-12.2-8.9s-11.3 3.9-12.2 8.9h-1.9c-1 0-1.7 1-1.7 2.2v8.4c.1 1.2.8 2.2 1.8 2.2m27.8-11c.1.1.1.3.1.4v8.4c0 .1 0 .3-.1.4h-1.5c0-.1-.1-.3-.1-.4v-8.7zm-27.7.4c0-.1 0-.3.1-.4h1.5v8.7c0 .1 0 .3-.1.4h-1.4c0-.1-.1-.3-.1-.4z" class="st0"/><path d="M49.02 42.148c-.2-.2-.5-.5-.8-.7-1.5-1-3.1-1.5-4.8-1.8-2.3-.5-4.5-1.1-6.101-3.2h-.1c-.1-.3-.1-1.4 1.4-3.3 3.4-4.1 2.6-10.7 2.3-12.7-.8-4.2-4.7-7.2-8.9-7.1-4.3-.1-8 3-8.9 7.1-.3 1.9-1.1 8.5 2.3 12.7 1.6 1.9 1.6 3.1 1.4 3.3-1.6 2.1-3.8 2.6-6.1 3.2-1.7.3-3.4.8-4.8 1.8-3.6 2.5-2.9 8-2.9 8.2l.1.7h37.799l.1-.7c-.1-.1.6-4.7-2-7.5zm.2 6.6h-34.6c-.1-1.4.1-4.3 2.1-5.8 1.3-.7 2.6-1.3 4.1-1.5 2.4-.5 5.2-1.2 7.2-3.8.3-.3 1.4-2.1-1.5-5.5-3-3.6-2.2-9.5-1.9-11.2.7-3.4 3.7-5.7 7.2-5.6 3.4-.1 6.5 2.3 7.2 5.6.3 1.7 1 7.6-1.9 11.2-2.7 3.4-1.7 5.2-1.5 5.5 2 2.6 4.799 3.3 7.199 3.8 1.5.2 2.9.7 4.1 1.5.2.1.4.3.5.5 1.7 1.5 1.8 4 1.8 5.3" class="st0"/></g></svg>