<svg xmlns="http://www.w3.org/2000/svg" width="64" height="64" preserveAspectRatio="xMinYMid" viewBox="0 0 64 64"><defs><style>.cls-1{fill:#a25ac4}</style></defs><title>estilos iconos paraeducaand_escolares</title><path id="back" d="M61.12 2.93A9.74 9.74 0 0 0 54.2.07H9.8A9.78 9.78 0 0 0 0 9.83v44.34a9.76 9.76 0 0 0 9.8 9.76h44.4a9.78 9.78 0 0 0 9.8-9.76V9.83a9.66 9.66 0 0 0-2.88-6.9m-.18 6.9v44.34a6.74 6.74 0 0 1-6.74 6.72H9.8a6.73 6.73 0 0 1-6.73-6.72V9.83A6.75 6.75 0 0 1 9.8 3.11h44.4a6.74 6.74 0 0 1 6.74 6.72" class="cls-1"/><g id="elements"><path d="M28.48 50.76a3.22 3.22 0 0 0 1.93-2 3.2 3.2 0 0 0 .11-1.76 3.4 3.4 0 0 0 .69-1.23 3.33 3.33 0 0 0 0-2 3.3 3.3 0 0 0 .55-1.19 3.6 3.6 0 0 0 0-1.74 3.29 3.29 0 0 0 0-3.91 2.6 2.6 0 0 0-2.1-1h-2.5a7 7 0 0 0 .48-1.32 6.3 6.3 0 0 0-.22-3.12A6 6 0 0 0 25.84 29a4 4 0 0 0-1.61-1 3.1 3.1 0 0 0-1.81 0 2.49 2.49 0 0 0-1.86 1.75 3.7 3.7 0 0 0 0 1.73 2 2 0 0 1-.21 1.75 22 22 0 0 1-1.32 2c-1.07 1.43-1.75 1.78-1.88 1.79h-4.81a2.24 2.24 0 0 0-2.23 2.24v9.53a2.24 2.24 0 0 0 2.24 2.24h2.18a1.12 1.12 0 0 0 .77-.32 1.13 1.13 0 0 0 .31-.78 1.09 1.09 0 0 0-1.05-.93l-2.23-.06v-9.58s0-.06.07-.06h4.88a3.45 3.45 0 0 0 2-1 11.5 11.5 0 0 0 1.49-1.66 23 23 0 0 0 1.45-2.22 3.6 3.6 0 0 0 .61-1.85 5.8 5.8 0 0 0-.13-1.42 2.3 2.3 0 0 1-.08-.76s0-.12.38-.22a1.41 1.41 0 0 1 1.33.44 4.14 4.14 0 0 1 1.19 3.7 11.2 11.2 0 0 1-1.08 2.3 1.09 1.09 0 0 0 .95 1.62h4.29a.46.46 0 0 1 .39.17 1 1 0 0 1 .12.86.7.7 0 0 1-.07.21H29a1.09 1.09 0 0 0 0 2.18h.73a1.8 1.8 0 0 1 0 .56 1 1 0 0 1-.13.32h-1.3a1.09 1.09 0 1 0 0 2.18h.9a1.4 1.4 0 0 1-.07.48 1.3 1.3 0 0 1-.28.48h-1.24a1.09 1.09 0 1 0 0 2.18h.79a2 2 0 0 1 0 .2c-.16.48-.47.94-2.2.94H21a3.6 3.6 0 0 1-2.58-.59.74.74 0 0 1-.24-.49v-6.36a1.1 1.1 0 0 0-.31-.77 1.12 1.12 0 0 0-.78-.32A1.09 1.09 0 0 0 16 41.51v6.24a2.5 2.5 0 0 0 .07.72 3 3 0 0 0 .75 1.38 5.1 5.1 0 0 0 3.83 1.28h5.52a6.1 6.1 0 0 0 2.31-.37" class="cls-1"/><path d="M53.84 19.11a.22.22 0 0 0 0-.14 1 1 0 0 0 0-.17l-.08-.23a.8.8 0 0 0-.1-.15l-8-8a.37.37 0 0 0-.37-.36.33.33 0 0 0-.29-.13H22.64a1.1 1.1 0 0 0-1.1 1.1v15.04a1.1 1.1 0 0 0 2.2 0v-14h19.82v7a1.1 1.1 0 0 0 1.1 1.1h7v31.75h-29a1.1 1.1 0 0 0 0 2.2h30.09a1.1 1.1 0 0 0 1.1-1.1ZM50.09 18h-4.33v-4.36Z" class="cls-1"/><path d="M35.13 43.68a7.48 7.48 0 1 0 15 0 7.6 7.6 0 0 0-.35-2.28 1.1 1.1 0 0 0-.55-.64 1.1 1.1 0 0 0-.62-.1l1.65-2a1.1 1.1 0 0 0-.16-1.55 1.12 1.12 0 0 0-.81-.24 1.07 1.07 0 0 0-.74.41l-1.07 1.31a2 2 0 0 0 0-.21 1.1 1.1 0 0 0-.44-.72 7.48 7.48 0 0 0-11.88 6Zm7.37 1L40 42.29a1.07 1.07 0 0 0-.78-.3 1.1 1.1 0 0 0-.73 1.9l3.4 3.2a1.12 1.12 0 0 0 .82.3 1.12 1.12 0 0 0 .78-.41l4.15-5.13a.8.8 0 0 0 0 .22 5.2 5.2 0 0 1 .25 1.61 5.28 5.28 0 1 1-5.28-5.28 5.2 5.2 0 0 1 3.1 1 1.16 1.16 0 0 0 .82.2h.1ZM30.35 24.41h8.14a1.1 1.1 0 1 0 0-2.2h-8.14a1.1 1.1 0 1 0 0 2.2m12.45 0H45a1.1 1.1 0 1 0 0-2.2h-2.2a1.1 1.1 0 1 0 0 2.2m-12.45 5.21h8.14a1.12 1.12 0 0 0 0-2.24h-8.14a1.12 1.12 0 0 0 0 2.24m12.45 0H45a1.12 1.12 0 0 0 0-2.24h-2.2a1.12 1.12 0 0 0 0 2.24m-12.45 5.17h8.14a1.1 1.1 0 1 0 0-2.2h-8.14a1.1 1.1 0 1 0 0 2.2m12.45 0H45a1.1 1.1 0 1 0 0-2.2h-2.2a1.1 1.1 0 1 0 0 2.2" class="cls-1"/></g></svg>