<svg xmlns="http://www.w3.org/2000/svg" width="64" height="64" preserveAspectRatio="xMinYMid" viewBox="0 0 64 64"><defs><clipPath id="clip-path"><path d="M8.91 23.6h20.8v11.88H8.91z" class="cls-1"/></clipPath><clipPath id="clip-path-2"><path d="M7.98 12.03h42.11v37.16H7.98z" class="cls-1"/></clipPath><style>.cls-1{fill:none}.cls-3{fill:#499113}.cls-7{fill:#fff}</style></defs><title>nuevos iconos_</title><g id="elements"><g style="clip-path:url(#clip-path)"><path d="M25.55 32.85v-2.24c0-.44-.19-.63-.64-.63h-9.12c-.45 0-.64.19-.65.62v2.27a1.49 1.49 0 0 1-1.39 1.52 18 18 0 0 1-2.1 0 1.52 1.52 0 0 1-1.15-.57 1.4 1.4 0 0 1-.34-1v-6.68a1.9 1.9 0 0 1 .13-.61 1.32 1.32 0 0 1 .86-.8 2.6 2.6 0 0 1 .78-.14h1.43a1.63 1.63 0 0 1 1.78 1.73 6 6 0 0 0 0 .59v1.58a.52.52 0 0 0 .55.56h12.76V30h-1.69a.61.61 0 0 0-.64.62v2.2Zm-16.64.42c.06.18.12.36.19.54a2.44 2.44 0 0 0 1.16 1.27 3.54 3.54 0 0 0 1.81.41h1.68a2.77 2.77 0 0 0 1.84-.8 2 2 0 0 0 .63-1 4 4 0 0 0 .12-.79V31h8v2.26a.61.61 0 0 0 .61.61h1.87a.56.56 0 0 0 .59-.61V31h1.69a.58.58 0 0 0 .61-.61v-1.73a.54.54 0 0 0-.56-.59H16.36v-2.1a2.2 2.2 0 0 0-.72-1.5 3.2 3.2 0 0 0-2.35-.87h-1.77a2.84 2.84 0 0 0-1.81.78 2.7 2.7 0 0 0-.78 1.4Z" class="cls-3"/><path d="M12.84 29.54V32c0 .24-.08.32-.32.32h.21c-.23 0-.31-.09-.31-.31v-4.93c0-.22.08-.31.31-.31h-.25c.29 0 .36.07.36.36zm1.24 0v-2.42a1.4 1.4 0 0 0-.15-.68 1.4 1.4 0 0 0-1.23-.71h-.29a1.28 1.28 0 0 0-1.16.94 1.7 1.7 0 0 0-.05.45v4.79a1.6 1.6 0 0 0 0 .44 1.28 1.28 0 0 0 1.15.95c.57.06-.06.07.51 0a1.29 1.29 0 0 0 1.22-1.3v-2.47" class="cls-3"/></g><path d="m57.85 24.66-22.5-22.5A7.32 7.32 0 0 0 30.14 0a7.34 7.34 0 0 0-5.21 2.16L2.38 24.7a7.38 7.38 0 0 0 0 10.43l22.5 22.5a7.36 7.36 0 0 0 10.43 0l22.53-22.55a7.37 7.37 0 0 0 .01-10.42M55.79 33 33.25 55.57a4.42 4.42 0 0 1-3.16 1.31 4.42 4.42 0 0 1-3.15-1.3L4.43 33.08a4.49 4.49 0 0 1 0-6.33L27 4.22a4.43 4.43 0 0 1 3.16-1.31 4.42 4.42 0 0 1 3.15 1.3l22.5 22.5a4.47 4.47 0 0 1-.02 6.29" class="cls-3"/><g style="clip-path:url(#clip-path-2)"><path d="M31.51 19.46c-.43 0-.77-.46-.77-1v-5.41c0-.56.34-1 .77-1s.76.46.76 1v5.39c0 .56-.34 1-.76 1m0 29.75c-.43 0-.77-.46-.77-1v-5.41c0-.56.34-1 .77-1s.76.46.76 1v5.39c0 .56-.34 1-.76 1" style="fill:#cd1719"/><path d="M31.51 19.46c-.43 0-.77-.46-.77-1v-5.41c0-.56.34-1 .77-1s.76.46.76 1v5.39c0 .56-.34 1-.76 1m0 29.75c-.43 0-.77-.46-.77-1v-5.41c0-.56.34-1 .77-1s.76.46.76 1v5.39c0 .56-.34 1-.76 1m-7.89-26.44a.91.91 0 0 1-1.26-.18l-3.81-3.81a.93.93 0 0 1-.18-1.27.91.91 0 0 1 1.26.18l3.82 3.81a.93.93 0 0 1 .17 1.27m21.02 21.02a.91.91 0 0 1-1.26-.18l-3.81-3.81a.93.93 0 0 1-.18-1.27.91.91 0 0 1 1.26.18l3.82 3.81a.92.92 0 0 1 .17 1.27m5.45-13.14c0 .42-.46.77-1 .77h-5.4a.8.8 0 1 1 0-1.54h5.4c.56 0 1 .35 1 .77m-26.47 7.88a.93.93 0 0 1-.17 1.27l-3.82 3.81a.91.91 0 0 1-1.26.18.93.93 0 0 1 .18-1.27l3.81-3.81a.91.91 0 0 1 1.26-.18m21.02-21.02a.92.92 0 0 1-.17 1.27l-3.82 3.81a.91.91 0 0 1-1.26.18.93.93 0 0 1 .18-1.27l3.81-3.81a.91.91 0 0 1 1.26-.18" class="cls-3"/><path d="M31.51 40.49a9.88 9.88 0 1 0-9.89-9.88 9.88 9.88 0 0 0 9.89 9.88" class="cls-3"/><path d="M31.51 29.71a1.15 1.15 0 1 0-1.15-1.15 1.15 1.15 0 0 0 1.15 1.15" class="cls-7"/></g><path d="M30.89 28.26h1.29v4.7h-1.29zm-2.36.39a.54.54 0 0 0-.56-.59H22a9 9 0 0 0-.18 1h5.52v.85h-1.73a.62.62 0 0 0-.63.62v2.2h-.58v-2.16c0-.43-.19-.63-.63-.63h-2.06v1.05h1.46v2.21a.61.61 0 0 0 .61.61h1.85a.54.54 0 0 0 .58-.6V31h1.72a.58.58 0 0 0 .6-.6c-.02-.61 0-1.18 0-1.75" class="cls-7"/></g></svg>