<svg xmlns="http://www.w3.org/2000/svg" width="64" height="64" preserveAspectRatio="xMinYMid" viewBox="0 0 64 64"><defs><style>.cls-1{fill:#0065ab}</style></defs><title>estilos iconos paraeducaand_escolares</title><g id="elements"><path d="M32 63.9A31.9 31.9 0 1 1 63.9 32 31.94 31.94 0 0 1 32 63.9m0-60.85A29 29 0 1 0 61 32 29 29 0 0 0 32 3.05" class="cls-1"/><path d="M19.87 39.07a6.25 6.25 0 0 0 6.24-6.24v-12.4a6.24 6.24 0 0 0-12.48 0v12.4a6.24 6.24 0 0 0 6.24 6.24M15 30.75h2.76a.69.69 0 0 0 0-1.37H15V27h2.76a.68.68 0 0 0 0-1.36H15v-2.32h2.76a.69.69 0 0 0 0-1.37H15v-1.52a4.88 4.88 0 0 1 9.75 0V22H21.9a.69.69 0 1 0 0 1.37h2.84v2.35H21.9a.68.68 0 1 0 0 1.36h2.84v2.35H21.9a.69.69 0 1 0 0 1.37h2.84v2.08a4.88 4.88 0 1 1-9.75 0Z" class="cls-1"/><path d="M19.87 39.32a6.5 6.5 0 0 1-6.49-6.49v-12.4a6.49 6.49 0 0 1 13 0v12.4a6.5 6.5 0 0 1-6.51 6.49m0-24.88a6 6 0 0 0-6 6v12.4a6 6 0 1 0 12 0V20.43a6 6 0 0 0-6-5.99m0 23.52a5.13 5.13 0 0 1-5.13-5.13V30.5h3a.44.44 0 0 0 0-.87h-3v-2.85h3a.43.43 0 0 0 0-.86h-3v-2.85h3a.44.44 0 0 0 0-.87h-3v-1.77a5.13 5.13 0 0 1 10.25 0v1.77H21.9a.44.44 0 1 0 0 .87H25v2.85h-3.1a.43.43 0 1 0 0 .86H25v2.85h-3.1a.44.44 0 1 0 0 .87H25v2.33A5.13 5.13 0 0 1 19.87 38Zm-4.63-7v1.83a4.63 4.63 0 1 0 9.25 0V31H21.9a.94.94 0 1 1 0-1.87h2.59v-1.85H21.9a.93.93 0 1 1 0-1.86h2.59v-1.85H21.9a.94.94 0 1 1 0-1.87h2.59v-1.27a4.63 4.63 0 0 0-9.25 0v1.27h2.51a.94.94 0 0 1 0 1.87h-2.51v1.85h2.51a.93.93 0 0 1 0 1.86h-2.51v1.85h2.51a.94.94 0 0 1 0 1.87Z" class="cls-1"/><path d="M20.72 42.37a9.76 9.76 0 0 0 8.85-9.66.69.69 0 0 0-1.37 0 8.34 8.34 0 0 1-16.67 0 .68.68 0 0 0-1.36 0A9.75 9.75 0 0 0 19 42.37h.16v6.06h-4.09a.69.69 0 0 0 0 1.37h9.59a.69.69 0 1 0 0-1.37h-4.11v-6.05Z" class="cls-1"/><path d="M24.66 50.06h-9.59a.94.94 0 0 1 0-1.87h3.86v-5.58a10 10 0 0 1-9-9.9.93.93 0 0 1 1.86 0 8.09 8.09 0 0 0 16.17 0 .94.94 0 0 1 1.87 0 10 10 0 0 1-9 9.9v5.58h3.86a.94.94 0 1 1 0 1.87Zm-9.59-1.37a.44.44 0 0 0 0 .87h9.59a.44.44 0 1 0 0-.87H20.3v-6.54h.4a9.51 9.51 0 0 0 8.62-9.41.44.44 0 0 0-.44-.43.43.43 0 0 0-.43.43 8.59 8.59 0 0 1-17.17 0 .43.43 0 0 0-.86 0A9.5 9.5 0 0 0 19 42.12h.39v6.54Zm29.06-9.62a6.24 6.24 0 0 0 6.24-6.24v-12.4a6.24 6.24 0 1 0-12.48 0v12.4a6.25 6.25 0 0 0 6.24 6.24m-4.87-8.32H42a.69.69 0 0 0 0-1.37h-2.74V27H42a.68.68 0 0 0 0-1.36h-2.74v-2.32H42A.69.69 0 0 0 42 22h-2.74v-1.57a4.88 4.88 0 0 1 9.75 0V22h-2.85a.69.69 0 0 0 0 1.37H49v2.35h-2.84a.68.68 0 1 0 0 1.36H49v2.35h-2.84a.69.69 0 0 0 0 1.37H49v2.08a4.88 4.88 0 1 1-9.75 0Z" class="cls-1"/><path d="M44.13 39.32a6.5 6.5 0 0 1-6.49-6.49v-12.4a6.49 6.49 0 1 1 13 0v12.4a6.5 6.5 0 0 1-6.51 6.49m0-24.88a6 6 0 0 0-6 6v12.4a6 6 0 0 0 12 0V20.43a6 6 0 0 0-6-5.99m0 23.52A5.13 5.13 0 0 1 39 32.83V30.5h3a.44.44 0 0 0 0-.87h-3v-2.85h3a.43.43 0 0 0 0-.86h-3v-2.85h3a.44.44 0 0 0 0-.87h-3v-1.77a5.13 5.13 0 0 1 10.25 0v1.77h-3.1a.44.44 0 0 0 0 .87h3.1v2.85h-3.1a.43.43 0 1 0 0 .86h3.1v2.85h-3.1a.44.44 0 0 0 0 .87h3.1v2.33A5.13 5.13 0 0 1 44.13 38Zm-4.62-7v1.83a4.63 4.63 0 1 0 9.25 0V31h-2.6a.94.94 0 0 1 0-1.87h2.6v-1.85h-2.6a.93.93 0 1 1 0-1.86h2.6v-1.85h-2.6a.94.94 0 0 1 0-1.87h2.6v-1.27a4.63 4.63 0 0 0-9.25 0v1.27H42a.94.94 0 0 1 0 1.87h-2.49v1.85H42a.93.93 0 0 1 0 1.86h-2.49v1.85H42A.94.94 0 0 1 42 31Z" class="cls-1"/><path d="M45 42.37a9.75 9.75 0 0 0 8.85-9.66.68.68 0 0 0-1.36 0 8.34 8.34 0 0 1-16.67 0 .69.69 0 0 0-1.37 0 9.76 9.76 0 0 0 8.85 9.66h.17v6.06h-4.13a.69.69 0 1 0 0 1.37h9.59a.69.69 0 0 0 0-1.37h-4.11v-6.05Z" class="cls-1"/><path d="M48.93 50.06h-9.59a.94.94 0 1 1 0-1.87h3.86v-5.58a10 10 0 0 1-9-9.9.94.94 0 0 1 1.87 0 8.09 8.09 0 0 0 16.17 0 .93.93 0 0 1 1.86 0 10 10 0 0 1-9 9.9v5.58h3.86a.94.94 0 0 1 0 1.87Zm-9.59-1.37a.44.44 0 1 0 0 .87h9.59a.44.44 0 0 0 0-.87h-4.36v-6.54h.39a9.5 9.5 0 0 0 8.62-9.41.43.43 0 0 0-.86 0 8.59 8.59 0 0 1-17.17 0 .43.43 0 0 0-.43-.43.44.44 0 0 0-.44.43 9.51 9.51 0 0 0 8.62 9.41h.4v6.54Z" class="cls-1"/></g></svg>