<svg xmlns="http://www.w3.org/2000/svg" width="64" height="64" preserveAspectRatio="xMinYMid"><defs><style>.cls-1{fill:#002a56}</style></defs><title>estilos iconos paraeducaand_escolares</title><g id="elements"><path d="M32 40.7a7.73 7.73 0 0 0 7.73-7.7V18.43a7.73 7.73 0 1 0-15.46 0V33A7.73 7.73 0 0 0 32 40.7m-5.32-9.76h2.84a1.21 1.21 0 0 0 0-2.42h-2.84v-1.95h2.84a1.21 1.21 0 0 0 0-2.41h-2.84v-1.95h2.84a1.21 1.21 0 0 0 0-2.41h-2.84v-1.37a5.32 5.32 0 1 1 10.64 0v1.37h-2.94a1.21 1.21 0 0 0 0 2.41h2.94v1.95h-2.94a1.21 1.21 0 0 0 0 2.41h2.94v1.95h-2.94a1.21 1.21 0 0 0 0 2.42h2.94v2a5.32 5.32 0 0 1-10.64 0Z" class="cls-1"/><path d="M43.79 32.83a1.21 1.21 0 0 0-2.41 0 9.38 9.38 0 0 1-18.76 0 1.21 1.21 0 0 0-2.41 0 11.86 11.86 0 0 0 10.58 11.72v6.34h-4.42a1.21 1.21 0 0 0 0 2.41h11.26a1.21 1.21 0 0 0 0-2.41h-4.42v-6.34a11.86 11.86 0 0 0 10.58-11.72" class="cls-1"/><path d="M32 63.9A31.9 31.9 0 1 1 63.9 32 31.94 31.94 0 0 1 32 63.9m0-60.85A29 29 0 1 0 61 32 29 29 0 0 0 32 3.05" class="cls-1"/></g></svg>