<svg xmlns="http://www.w3.org/2000/svg" width="64" height="64" preserveAspectRatio="xMinYMid"><defs><style>.cls-1{fill:#002a56}</style></defs><title>estilos iconos paraeducaand_escolares</title><path id="back" d="M61.68 26.4 37.6 2.32A7.84 7.84 0 0 0 32 0a7.83 7.83 0 0 0-5.57 2.31L2.33 26.45a7.89 7.89 0 0 0 0 11.15L26.4 61.68a7.89 7.89 0 0 0 11.15 0l24.12-24.13a7.89 7.89 0 0 0 .01-11.15m-2.21 9L35.36 59.47A4.78 4.78 0 0 1 32 60.88a4.73 4.73 0 0 1-3.37-1.4L4.52 35.41a4.8 4.8 0 0 1 0-6.77L28.64 4.53A4.76 4.76 0 0 1 32 3.12a4.77 4.77 0 0 1 3.38 1.4l24.1 24.08a4.78 4.78 0 0 1-.01 6.76Z" class="cls-1"/><g id="elements"><path d="M17.51 18.53v25.09a3 3 0 0 0 3 3h23.18a3 3 0 0 0 2.22-1h.28v-.35a3 3 0 0 0 .5-1.65V18.53ZM44.69 30.6H39.9v-6h4.79Zm-1 14H39.9v-6h4.79v5a1 1 0 0 1-.99 1.02Zm-10.86-20v6h-5.16v-6Zm-5.17 13v-6h5.17v6Zm-1-6v6h-7.1v-6Zm6.17 7v6h-5.16v-6Zm1 0h5.07v6h-5.06Zm0-1v-6h5.07v6Zm0-7v-6h5.07v6Zm-7.17 0h-7.15v-6h7.16Zm-7.1 13.27v-5.24h7.11v6H20.5a1 1 0 0 1-.94-.76m20.34-6.25v-6h4.79v6Z" class="cls-1"/><path d="m31.48 33.37-1.65 1.66-.78-.9-.56.49 1.3 1.51 2.22-2.23zm10.33-4.26 2.22-2.22-.52-.53-1.66 1.66-.77-.9-.57.49zm-4.22 11.27-1.65 1.65-.78-.89-.56.49 1.3 1.5 2.22-2.22zM20.84 27.22h4.41v.75h-4.41zm0 14.02h4.41v.75h-4.41zm0-6.99h4.41V35h-4.41z" class="cls-1"/></g></svg>