<svg xmlns="http://www.w3.org/2000/svg" width="64" height="64" preserveAspectRatio="xMinYMid" viewBox="0 0 64 64"><defs id="defs33283"><clipPath id="clip-path"><path id="rect33227" d="M.1-.18H64V64H.1z" class="cls-1"/></clipPath><style id="style33281">.cls-1{fill:#a25ac4}</style></defs><title id="title33285">estilos iconos paraeducaand_escolares</title><path id="path33289" d="M61.12 2.93A9.74 9.74 0 0 0 54.2.07H9.8A9.78 9.78 0 0 0 0 9.83v44.34a9.76 9.76 0 0 0 9.8 9.76h44.4a9.78 9.78 0 0 0 9.8-9.76V9.83a9.66 9.66 0 0 0-2.88-6.9m-.18 6.9v44.34a6.74 6.74 0 0 1-6.74 6.72H9.8a6.73 6.73 0 0 1-6.73-6.72V9.83A6.75 6.75 0 0 1 9.8 3.11h44.4a6.74 6.74 0 0 1 6.74 6.72" class="cls-1"/><g id="g33988" transform="translate(-53.836 -31.19)"><path id="path33731" d="M90.846 45.98a2.34 2.34 0 1 0 3.2.86 2.34 2.34 0 0 0-3.2-.86z" class="cls-4" style="fill:none;stroke:#a25ac4;stroke-width:1.61px;stroke-miterlimit:10"/><circle id="circle33733" cx="-22.512" cy="94.551" r="3.33" class="cls-4" style="fill:none;stroke:#a25ac4;stroke-width:1.61px;stroke-miterlimit:10" transform="rotate(-75.08)"/><circle id="circle33735" cx="5.672" cy="90.341" r="4.36" class="cls-4" style="fill:none;stroke:#a25ac4;stroke-width:1.61px;stroke-miterlimit:10" transform="rotate(-54.56)"/><circle id="circle33737" cx="57.769" cy="65.625" r="5.35" class="cls-4" style="fill:none;stroke:#a25ac4;stroke-width:1.61px;stroke-miterlimit:10" transform="rotate(-10.12)"/><path id="path33739" d="m82.266 51.35-.76.25a10.63 10.63 0 0 0-3.62 17.62l.76.86a22.5 22.5 0 0 1 5.41 11.5 6.14 6.14 0 0 0 7.48 5l.29-.07a6.16 6.16 0 0 0 4.12-7.86l-.21-.7a22.46 22.46 0 0 1-.5-12.61l.07-.27.14-.44a9.34 9.34 0 0 0-.1-6.46 10.63 10.63 0 0 0-13.08-6.82z" class="cls-4" style="fill:none;stroke:#a25ac4;stroke-width:1.61px;stroke-miterlimit:10"/></g></svg>