<svg xmlns="http://www.w3.org/2000/svg" width="64" height="64" preserveAspectRatio="xMinYMid" viewBox="0 0 64 64"><defs><style>.cls-2{fill:#0065ab;stroke:#0065ab;stroke-miterlimit:10;stroke-width:.5px}</style></defs><title>estilos iconos paraeducaand_escolares</title><g id="elements"><path d="M32 63.9A31.9 31.9 0 1 1 63.9 32 31.94 31.94 0 0 1 32 63.9m0-60.85A29 29 0 1 0 61 32 29 29 0 0 0 32 3.05" style="fill:#0065ab"/><path d="M48.47 47.46a6.3 6.3 0 0 1-2.57-.59 15.7 15.7 0 0 1-5-4.21 18.8 18.8 0 0 0-3.23-3.1 10 10 0 0 0-11.32 0 18.8 18.8 0 0 0-3.23 3.1 15.5 15.5 0 0 1-5 4.2 6.1 6.1 0 0 1-2.57.6 5.14 5.14 0 0 1-3.79-1.68 7.86 7.86 0 0 1-1.93-3.91c-.71-3.59 0-7.16.75-10.62.07-.38.16-.77.23-1.15a25.3 25.3 0 0 1 2.05-6.1 17.3 17.3 0 0 1 3.85-5.24 8.75 8.75 0 0 1 6.07-2.23 16 16 0 0 1 5.23 1c.51.18 1 .4 1.49.62A7.7 7.7 0 0 0 32 19a7.7 7.7 0 0 0 2.5-.83c.48-.22 1-.44 1.49-.62a16 16 0 0 1 5.23-1 8.75 8.75 0 0 1 6.07 2.23A17.3 17.3 0 0 1 51.14 24a25.3 25.3 0 0 1 2.07 6.09c.07.38.16.77.23 1.15.72 3.46 1.46 7 .75 10.62a7.8 7.8 0 0 1-1.93 3.91 5.14 5.14 0 0 1-3.79 1.69ZM32 36a11.67 11.67 0 0 1 6.66 2.08 20.7 20.7 0 0 1 3.56 3.37 14.1 14.1 0 0 0 4.41 3.78 4.5 4.5 0 0 0 1.84.43c1.91 0 3.47-1.63 4-4.16.65-3.24 0-6.63-.73-9.91-.08-.38-.17-.77-.24-1.16-.86-4.23-2.86-8.11-5.37-10.37a7.06 7.06 0 0 0-4.88-1.77 14 14 0 0 0-4.64.9c-.44.15-.88.35-1.35.56a9 9 0 0 1-3.18 1H32a9 9 0 0 1-3.18-1c-.47-.21-.91-.41-1.35-.56a14 14 0 0 0-4.64-.9 7.06 7.06 0 0 0-4.88 1.77c-2.51 2.26-4.51 6.14-5.37 10.37-.07.39-.16.78-.24 1.16-.68 3.28-1.38 6.67-.73 9.91.5 2.53 2.06 4.16 4 4.16a4.5 4.5 0 0 0 1.84-.43 14.1 14.1 0 0 0 4.41-3.78 21 21 0 0 1 3.55-3.37A11.7 11.7 0 0 1 32 36Z" class="cls-2"/><path d="M24.35 27.48H22v-2.43c0-.84-2.36-.84-2.36 0v2.43h-2.49c-.81 0-.81 2.39 0 2.39h2.45v2.35c0 .84 2.36.84 2.36 0v-2.35h2.39c.8 0 .8-2.39 0-2.39Zm20.84.21a1.31 1.31 0 0 1 1.86 1.85 1.31 1.31 0 1 1-1.86-1.85Zm-6.29 0a1.31 1.31 0 1 1 1.85 1.85 1.31 1.31 0 0 1-1.85-1.85Zm5 3.15a1.31 1.31 0 1 1-1.86 0 1.31 1.31 0 0 1 1.86 0Zm0-6.3a1.32 1.32 0 1 1-1.86 0 1.32 1.32 0 0 1 1.86 0Z" class="cls-2"/></g></svg>