<svg xmlns="http://www.w3.org/2000/svg" width="64" height="64" preserveAspectRatio="xMinYMid"><defs><style>.cls-1{fill:#002a56}</style></defs><title>estilos iconos paraeducaand_escolares</title><g id="elements"><path d="M47.38 20a4.55 4.55 0 0 0-1.82-3.09l-5.48-4a4.52 4.52 0 0 0-3.5-.79A4.86 4.86 0 0 0 33.5 14L18.37 34.69a1 1 0 0 0-.14.25 1.07 1.07 0 0 0-.38.72l-1.27 13.46a1.13 1.13 0 0 0 .45 1 1.1 1.1 0 0 0 .65.22 1 1 0 0 0 .43-.09L30.56 45a1.05 1.05 0 0 0 .58-.59 1.2 1.2 0 0 0 .19-.2l15.14-20.7a4.88 4.88 0 0 0 .91-3.51M28.62 43.39l-4.16 1.76-4.85-3.55-.08-.05.43-4.5ZM44.68 22.2l-14.4 19.67-9.4-6.87 14.41-19.68A2.67 2.67 0 0 1 37 14.26a2.3 2.3 0 0 1 1.81.41l5.49 4a2.38 2.38 0 0 1 .93 1.6 2.6 2.6 0 0 1-.55 1.93m-22.59 24L19 47.48l.32-3.39Z" class="cls-1"/><path d="M40.18 21.83 29.53 36.38a1.11 1.11 0 0 0 .89 1.76 1.12 1.12 0 0 0 .9-.46L42 23.14a1.11 1.11 0 1 0-1.78-1.31Zm1.58 27.83H20.34a1.17 1.17 0 1 0 0 2.33h21.42a1.17 1.17 0 0 0 0-2.33" class="cls-1"/><path d="M32 63.9A31.9 31.9 0 1 1 63.9 32 31.94 31.94 0 0 1 32 63.9m0-60.85A29 29 0 1 0 61 32 29 29 0 0 0 32 3.05" class="cls-1"/></g></svg>