<svg xmlns="http://www.w3.org/2000/svg" width="64" height="64" preserveAspectRatio="xMinYMid" viewBox="0 0 64 64"><title>estilos iconos paraeducaand_escolares</title><path d="M61.12 2.93A9.74 9.74 0 0 0 54.2.07H9.8A9.78 9.78 0 0 0 0 9.83v44.34a9.76 9.76 0 0 0 9.8 9.76h44.4a9.78 9.78 0 0 0 9.8-9.76V9.83a9.66 9.66 0 0 0-2.88-6.9m-.18 6.9v44.34a6.74 6.74 0 0 1-6.74 6.72H9.8a6.73 6.73 0 0 1-6.73-6.72V9.83A6.75 6.75 0 0 1 9.8 3.11h44.4a6.74 6.74 0 0 1 6.74 6.72" style="fill:#a25ac4"/><path d="M48.18 45.51h-.44v-.29a2.82 2.82 0 0 0-2.82-2.82h-.23a2.83 2.83 0 0 0-2.83 2.82v.29h-.2V33.68A3.73 3.73 0 0 0 40 30.54v-.9a2.8 2.8 0 0 0-.36-1.35 2.55 2.55 0 0 0 1.57-2.35v-7.17a2.82 2.82 0 0 0-.58-1.7L36.69 12a3.32 3.32 0 0 0-2.62-1.29h-12.2v-.26a.76.76 0 0 0-.76-.75H16.8v1.51h3.55v8.13H16.8v1.51h4.31a.76.76 0 0 0 .76-.75v-.77h.75a7 7 0 0 0 5.75 4.05l3.91 4.51a2.8 2.8 0 0 0 1.89 1 2.7 2.7 0 0 0-.12.75v.9a3.75 3.75 0 0 0-1.7 3.14v4h-.21v-.29a2.82 2.82 0 0 0-2.82-2.82h-.23a2.82 2.82 0 0 0-2.82 2.82v.29h-.44A1.27 1.27 0 0 0 24.58 39v6.52h-.21v-.29a2.82 2.82 0 0 0-2.82-2.82h-.23a2.82 2.82 0 0 0-2.82 2.82v.29h-.44a1.27 1.27 0 0 0-1.27 1.27v6.75a1.27 1.27 0 0 0 1.27 1.27h30.12a1.27 1.27 0 0 0 1.27-1.27v-6.76a1.27 1.27 0 0 0-1.27-1.27Zm-4.82-.29a1.33 1.33 0 0 1 1.33-1.32h.23a1.32 1.32 0 0 1 1.32 1.32v.29h-2.88Zm-21.49-33h12.2a1.83 1.83 0 0 1 1.42.69L39.38 18a1.28 1.28 0 0 1 .26.78v7.17a1 1 0 1 1-2 0v-5.84a.78.78 0 0 0-.17-.48l-2-2.53a.77.77 0 0 0-.59-.29h-1.59a1.78 1.78 0 0 0-1.77 1.77v2a.78.78 0 0 0 .19.51l3.68 4.17a1.29 1.29 0 0 1-.15 1.8 1.35 1.35 0 0 1-.93.29 1.25 1.25 0 0 1-.87-.46l-4.14-4.74a.75.75 0 0 0-.57-.26 5.37 5.37 0 0 1-4.87-3.54.74.74 0 0 0-.72-.52h-1.27ZM33 18.58a.25.25 0 0 1 .25-.25h1.16l1.64 2v3.42L33 20.33Zm2.53 11.35v-.29a1.33 1.33 0 0 1 1.33-1.32h.23a1.32 1.32 0 0 1 1.32 1.32v.29h-2.84Zm-1.7 3.75a2.25 2.25 0 0 1 2.25-2.25h1.79a2.25 2.25 0 0 1 2.25 2.25v4H40v-.29a2.82 2.82 0 0 0-2.82-2.82h-.28a2.83 2.83 0 0 0-2.83 2.82v.29h-.2Zm4.58 4h-2.84v-.29a1.33 1.33 0 0 1 1.33-1.32h.23a1.32 1.32 0 0 1 1.32 1.32Zm-10.66-.29a1.32 1.32 0 0 1 1.32-1.32h.23a1.32 1.32 0 0 1 1.32 1.32v.29h-2.83Zm-1.71 1.79h14.12v6.29H40v-.29a2.82 2.82 0 0 0-2.82-2.82h-.28a2.83 2.83 0 0 0-2.83 2.82v.29h-1.91v-.29a2.82 2.82 0 0 0-2.82-2.82h-.23a2.82 2.82 0 0 0-2.82 2.82v.29h-.21Zm12.37 6.29h-2.84v-.29a1.33 1.33 0 0 1 1.33-1.28h.23a1.32 1.32 0 0 1 1.32 1.32Zm-7.79 0h-2.83v-.29a1.32 1.32 0 0 1 1.32-1.32h.23a1.32 1.32 0 0 1 1.32 1.32ZM20 45.22a1.32 1.32 0 0 1 1.32-1.32h.23a1.32 1.32 0 0 1 1.32 1.32v.29H20ZM18.29 47h14.08v6.3H18.29ZM48 53.3H33.87V47H48Z" style="fill:#a25ac4;stroke:#a25ac4;stroke-miterlimit:10;stroke-width:.5px"/></svg>