<svg xmlns="http://www.w3.org/2000/svg" width="64" height="64" preserveAspectRatio="xMinYMid" viewBox="0 0 64 64"><defs><style>.cls-1{fill:#a25ac4}</style></defs><title>estilos iconos paraeducaand_escolares</title><path id="back" d="M61.12 2.93A9.74 9.74 0 0 0 54.2.07H9.8A9.78 9.78 0 0 0 0 9.83v44.34a9.76 9.76 0 0 0 9.8 9.76h44.4a9.78 9.78 0 0 0 9.8-9.76V9.83a9.66 9.66 0 0 0-2.88-6.9m-.18 6.9v44.34a6.74 6.74 0 0 1-6.74 6.72H9.8a6.73 6.73 0 0 1-6.73-6.72V9.83A6.75 6.75 0 0 1 9.8 3.11h44.4a6.74 6.74 0 0 1 6.74 6.72" class="cls-1"/><path id="elements" d="M45.17 25.56A8.8 8.8 0 0 0 39.93 23l-1.28-10.14h.29a2.62 2.62 0 0 0 1.87-.77 2.67 2.67 0 0 0-1.87-4.53H25.06a2.65 2.65 0 0 0-1.87 4.53 2.62 2.62 0 0 0 1.87.77h.29L24.07 23a8.88 8.88 0 0 0-7.83 8.76 1.06 1.06 0 0 0 .34.78 1.08 1.08 0 0 0 .77.33h11.23v14.34a12 12 0 0 0 .75 4.18L31 55.72a1.12 1.12 0 0 0 1 .72 1.12 1.12 0 0 0 1-.72l1.63-4.33a11.9 11.9 0 0 0 .75-4.18V32.9h11.26a1.12 1.12 0 0 0 1.12-1.11 8.74 8.74 0 0 0-2.59-6.23m-20.41-15a.42.42 0 0 1-.13-.3.43.43 0 0 1 .43-.43h13.87a.46.46 0 0 1 .44.43.42.42 0 0 1-.13.3.4.4 0 0 1-.3.13H25.06a.39.39 0 0 1-.3-.18ZM26.32 23l1.27-10.11h8.83L37.68 23Zm19.12 7.71H18.56a6.59 6.59 0 0 1 6.5-5.48h13.88a6.6 6.6 0 0 1 6.5 5.48M33.2 32.9v14.31a9.9 9.9 0 0 1-.61 3.4L32 52.17l-.58-1.56a9.7 9.7 0 0 1-.62-3.4V32.9Z" class="cls-1"/></svg>