<svg xmlns="http://www.w3.org/2000/svg" width="64" height="64" preserveAspectRatio="xMinYMid" viewBox="0 0 64 64"><defs><style>.cls-1{fill:#0065ab}</style></defs><title>estilos iconos paraeducaand_escolares</title><g id="elements"><path d="M45.5 44.78v-24.1a2.49 2.49 0 0 0-2.5-2.49h-.14v1.91H43a.58.58 0 0 1 .58.58v24.1a.58.58 0 0 1-.58.58H19.89a.58.58 0 0 1-.58-.58v-.72h-1.53l-.32.08-.06.3v.34a2.49 2.49 0 0 0 2.48 2.49H43a2.49 2.49 0 0 0 2.5-2.49" class="cls-1"/><path d="M42.26 40.94v-24.1a2.71 2.71 0 0 0-2.71-2.71H16.42a2.71 2.71 0 0 0-2.71 2.71v24.1a2.71 2.71 0 0 0 2.71 2.71h23.13a2.71 2.71 0 0 0 2.71-2.71m-26.19 0v-24.1a.36.36 0 0 1 .35-.36h23.13a.35.35 0 0 1 .35.36v24.1a.35.35 0 0 1-.35.36H16.42a.36.36 0 0 1-.35-.36" class="cls-1"/><path d="M35.2 30.32h-4.72a1.35 1.35 0 0 0-1.35 1.35v4.91a1.35 1.35 0 0 0 1.35 1.35h4.72a1.35 1.35 0 0 0 1.35-1.35v-4.91a1.35 1.35 0 0 0-1.35-1.35m-.73 5.53h-3.26v-3.46h3.26Zm-8.65-5.53H21.1a1.35 1.35 0 0 0-1.35 1.35v4.91a1.35 1.35 0 0 0 1.35 1.35h4.72a1.35 1.35 0 0 0 1.35-1.35v-4.91a1.35 1.35 0 0 0-1.35-1.35m-.73 5.53h-3.26v-3.46h3.26Zm10.28-14.93H20.84a1.18 1.18 0 0 0 0 2.35h14.53a1.18 1.18 0 1 0 0-2.35m0 4.89H20.84a1.18 1.18 0 0 0 0 2.36h14.53a1.18 1.18 0 0 0 0-2.36" class="cls-1"/><path d="M46.56 21.88h-.14v1.9h.14a.58.58 0 0 1 .58.58v24.11a.58.58 0 0 1-.58.58H23.44a.58.58 0 0 1-.58-.58v-.73H21v.72A2.49 2.49 0 0 0 23.44 51h23.12a2.49 2.49 0 0 0 2.49-2.48V24.36a2.49 2.49 0 0 0-2.49-2.48" class="cls-1"/><path d="M32 63.9A31.9 31.9 0 1 1 63.9 32 31.94 31.94 0 0 1 32 63.9m0-60.85A29 29 0 1 0 61 32 29 29 0 0 0 32 3.05" class="cls-1"/></g></svg>