<svg xmlns="http://www.w3.org/2000/svg" width="64" height="64" preserveAspectRatio="xMinYMid"><defs><style>.cls-1{fill:#002a56}</style></defs><title>estilos iconos paraeducaand_escolares</title><path id="back" d="M61.12 2.93A9.74 9.74 0 0 0 54.2.07H9.8A9.78 9.78 0 0 0 0 9.83v44.34a9.76 9.76 0 0 0 9.8 9.76h44.4a9.78 9.78 0 0 0 9.8-9.76V9.83a9.66 9.66 0 0 0-2.88-6.9m-.18 6.9v44.34a6.74 6.74 0 0 1-6.74 6.72H9.8a6.73 6.73 0 0 1-6.73-6.72V9.83A6.75 6.75 0 0 1 9.8 3.11h44.4a6.74 6.74 0 0 1 6.74 6.72" class="cls-1"/><g id="elements"><path d="m43 29.65-14.87-8.56a2.53 2.53 0 0 0-4.07 2.34v17.14a2.75 2.75 0 0 0 1.24 2.54 2.3 2.3 0 0 0 1.16.3 3.33 3.33 0 0 0 1.67-.49L43 34.35a2.54 2.54 0 0 0 0-4.7M41.18 32 27 40.19V23.81Z" class="cls-1"/><path d="M32 10.67A21.33 21.33 0 1 0 53.33 32 21.36 21.36 0 0 0 32 10.67M50.29 32A18.29 18.29 0 1 1 32 13.71 18.32 18.32 0 0 1 50.29 32" class="cls-1"/></g></svg>