<svg xmlns="http://www.w3.org/2000/svg" width="64" height="64" preserveAspectRatio="xMinYMid" viewBox="0 0 64 64"><defs><style>.cls-1{fill:#a25ac4}.cls-2{fill:none}.cls-3{fill:#fff}</style></defs><title>estilos iconos paraeducaand_escolares</title><path id="back" d="M61.12 2.93A9.74 9.74 0 0 0 54.2.07H9.8A9.78 9.78 0 0 0 0 9.83v44.34a9.76 9.76 0 0 0 9.8 9.76h44.4a9.78 9.78 0 0 0 9.8-9.76V9.83a9.66 9.66 0 0 0-2.88-6.9m-.18 6.9v44.34a6.74 6.74 0 0 1-6.74 6.72H9.8a6.73 6.73 0 0 1-6.73-6.72V9.83A6.75 6.75 0 0 1 9.8 3.11h44.4a6.74 6.74 0 0 1 6.74 6.72" class="cls-1"/><g id="elements"><path d="M36.42 17.48v6.7a4.34 4.34 0 0 1-8.67 0v-3.61a1.54 1.54 0 0 1 3.08 0v3.61a1.26 1.26 0 1 0 2.52 0v-6.42l-12.86 1.15 2.64 29.57 29.57-2.64-2.64-29.58Zm4.26 33.2.13-.7-2.62.24zm-7.9-38.87a.56.56 0 0 0-.56.56v2.4l1.13-.1v-2.3a.57.57 0 0 0-.57-.56m-15.14 4.72a1.7 1.7 0 0 1 .35-.31L17 16l-5.5 29.21 8.4 1.58-2.61-29.14a1.55 1.55 0 0 1 .35-1.12m37.48 30.63" class="cls-2"/><path d="m40.76 50.96.13.03.24-1.3-4.84.44zm-7.15-38.59a.83.83 0 0 0-.83-.82.82.82 0 0 0-.82.82v2.69l1.65-.15ZM17.84 16.7a1.33 1.33 0 0 1 .61-.4l.51-.15-2.2-.41-5.54 29.55v.13l9 1.69-2.67-29.48a1.25 1.25 0 0 1 .29-.93m32.45-.7-14 1.25h-.12v6.93a4.08 4.08 0 0 1-8.15 0v-3.61a1.28 1.28 0 0 1 2.56 0v3.61a1.52 1.52 0 1 0 3 0v-6.71l-13.25 1.19h-.13l2.68 30v.13l30-2.68H53l-2.68-30Zm4.83 31.16" class="cls-2"/><path d="M52.72 14.48a1.32 1.32 0 0 0-1.37-1.15l-15.19 1.35v-2.31a3.38 3.38 0 1 0-6.75 0v2.92l-.79.07L16 13a1.3 1.3 0 0 0-1 .2 1.28 1.28 0 0 0-.53.82l-6 32.2a1.23 1.23 0 0 0 .19.95 1.3 1.3 0 0 0 .82.53l11 2.06v.51a1.3 1.3 0 0 0 1.33 1.15h.06l5.04-.42 14.73 2.76a1.23 1.23 0 0 0 1-.2 1.27 1.27 0 0 0 .52-.81l.61-3.26h.1l10.61-.94a1.27 1.27 0 0 0 .87-.46 1.3 1.3 0 0 0 .29-.93ZM32 12.37a.82.82 0 0 1 .82-.82.83.83 0 0 1 .83.82v2.54l-1.65.15ZM11.2 45.42v-.13l5.54-29.56 2.2.41-.51.15a1.33 1.33 0 0 0-.61.4 1.25 1.25 0 0 0-.29.93l2.64 29.48ZM40.89 51h-.13l-4.47-.84 4.84-.43Zm12-4.91L22.9 48.76v-.13l-2.68-30h.13l13.28-1.19v6.71a1.52 1.52 0 1 1-3 0v-3.58a1.28 1.28 0 0 0-2.56 0v3.61a4.08 4.08 0 0 0 8.15 0v-6.93h.12l14-1.25v.13l2.68 30Zm2.27 1.08" class="cls-1"/><path d="M53 14.46a1.59 1.59 0 0 0-1.59-1.4h-.06L36.42 14.4v-2a3.64 3.64 0 1 0-7.27 0v2.68h-.52L16 12.73a1.6 1.6 0 0 0-1.15.24 1.5 1.5 0 0 0-.64 1l-6 32.2a1.48 1.48 0 0 0 .24 1.14 1.54 1.54 0 0 0 1 .65l10.75 2v.31a1.55 1.55 0 0 0 1.59 1.39h.08l5-.45L41.61 54a1.5 1.5 0 0 0 .3 0 1.54 1.54 0 0 0 1.51-1.25l.58-3.06 10.51-.93a1.56 1.56 0 0 0 1.4-1.67ZM55.35 48a1.27 1.27 0 0 1-.87.46l-10.61.94h-.1l-.61 3.26a1.27 1.27 0 0 1-.52.81 1.23 1.23 0 0 1-1 .2L26.93 51l-5.05.45h-.08a1.3 1.3 0 0 1-1.33-1.15v-.51l-11-2.06a1.3 1.3 0 0 1-.82-.53 1.23 1.23 0 0 1-.19-.95l6-32.2a1.28 1.28 0 0 1 .53-.82 1.3 1.3 0 0 1 1-.2l12.61 2.32.79-.07v-2.91a3.38 3.38 0 1 1 6.75 0v2.31l15.19-1.35a1.32 1.32 0 0 1 1.37 1.15l2.92 32.63a1.3 1.3 0 0 1-.27.89" class="cls-3"/><path d="m50.29 16-14 1.25h-.12v6.93a4.08 4.08 0 0 1-8.15 0v-3.61a1.28 1.28 0 0 1 2.56 0v3.61a1.52 1.52 0 1 0 3 0v-6.71l-13.25 1.19h-.13l2.68 30v.13l30-2.68H53l-2.68-30ZM23.13 48.48l-2.64-29.57 12.86-1.15v6.42a1.26 1.26 0 1 1-2.52 0v-3.61a1.54 1.54 0 0 0-3.08 0v3.61a4.34 4.34 0 0 0 8.67 0v-6.7l13.64-1.22 2.64 29.58Zm10.48-36.11a.83.83 0 0 0-.83-.82.82.82 0 0 0-.82.82v2.69l1.65-.15Zm-.26 2.3-1.13.1v-2.4a.56.56 0 0 1 .56-.56.57.57 0 0 1 .57.56ZM17.84 16.7a1.33 1.33 0 0 1 .61-.4l.51-.15-2.2-.41-5.54 29.55v.13l9 1.69-2.67-29.48a1.25 1.25 0 0 1 .29-.93m2.06 30.09-8.4-1.58L17 16l1 .19a1.7 1.7 0 0 0-.35.31 1.55 1.55 0 0 0-.35 1.12ZM40.76 51h.13l.24-1.3-4.84.43Zm-.08-.28-2.49-.46 2.62-.26Z" class="cls-3"/></g></svg>