<svg xmlns="http://www.w3.org/2000/svg" width="64" height="64" preserveAspectRatio="xMinYMid" viewBox="0 0 64 64"><defs><style>.cls-1{fill:#5baf07}</style></defs><title>estilos iconos paraeducaand_escolares</title><path id="back" d="M61.68 26.4 37.6 2.32A7.84 7.84 0 0 0 32 0a7.83 7.83 0 0 0-5.57 2.31L2.33 26.45a7.89 7.89 0 0 0 0 11.15L26.4 61.68a7.89 7.89 0 0 0 11.15 0l24.12-24.13a7.89 7.89 0 0 0 .01-11.15m-2.21 9L35.36 59.47A4.78 4.78 0 0 1 32 60.88a4.73 4.73 0 0 1-3.37-1.4L4.52 35.41a4.8 4.8 0 0 1 0-6.77L28.64 4.53A4.76 4.76 0 0 1 32 3.12a4.77 4.77 0 0 1 3.38 1.4l24.1 24.08a4.78 4.78 0 0 1-.01 6.76Z" class="cls-1"/><g id="elements"><path d="M44 20.89h-6v-1.63a2.74 2.74 0 0 0-2.74-2.74h-6.53A2.74 2.74 0 0 0 26 19.26v1.63h-6a4.34 4.34 0 0 0-4.33 4.33v16.16A4.34 4.34 0 0 0 20 45.71h24a4.34 4.34 0 0 0 4.33-4.33V25.22A4.33 4.33 0 0 0 44 20.89m0 23H26.33v-9.81a4.56 4.56 0 0 0 0-7.95v-3.39H44a2.48 2.48 0 0 1 2.48 2.48v16.16A2.49 2.49 0 0 1 44 43.86Zm-20.31 0v-9.21h.82v9.18Zm.82-21.12v2.79a3 3 0 0 0-.41 0 3 3 0 0 0-.41 0v-2.82Zm.67 4.84a2.74 2.74 0 0 1 0 5l-.2.06c-.11 0-.21.07-.32.09a2.5 2.5 0 0 1-.38 0 1.3 1.3 0 0 1-.28 0 2.3 2.3 0 0 1-.38 0 1.6 1.6 0 0 1-.31-.09l-.31-.03a2.74 2.74 0 0 1 0-5l.22-.07.31-.09a2 2 0 0 1 .33 0h.38a2 2 0 0 1 .33 0l.31.09.22.07Zm-3.34-1.45a4.55 4.55 0 0 0 0 8v9.78H20a2.49 2.49 0 0 1-2.48-2.48V25.22A2.49 2.49 0 0 1 20 22.74h1.78Zm6.92-7.6h6.54a.74.74 0 0 1 .74.73v1.63H28v-1.66a.73.73 0 0 1 .73-.73Z" class="cls-1"/><path d="m32.46 36.2 3.21 4.9 9.58-6.27-3.25-4.9Zm3.75 2.34L35 36.74l6.49-4.25 1.18 1.8Z" class="cls-1"/></g></svg>