<svg xmlns="http://www.w3.org/2000/svg" width="64" height="64" preserveAspectRatio="xMinYMid" viewBox="0 0 64 64"><defs><style>.cls-1{fill:#a25ac4}</style></defs><title>estilos iconos paraeducaand_escolares</title><path id="back" d="M61.12 2.93A9.74 9.74 0 0 0 54.2.07H9.8A9.78 9.78 0 0 0 0 9.83v44.34a9.76 9.76 0 0 0 9.8 9.76h44.4a9.78 9.78 0 0 0 9.8-9.76V9.83a9.66 9.66 0 0 0-2.88-6.9m-.18 6.9v44.34a6.74 6.74 0 0 1-6.74 6.72H9.8a6.73 6.73 0 0 1-6.73-6.72V9.83A6.75 6.75 0 0 1 9.8 3.11h44.4a6.74 6.74 0 0 1 6.74 6.72" class="cls-1"/><path id="elements" d="M35.52 8.94a8.47 8.47 0 0 0-8.45 8.46v24.17A4.8 4.8 0 0 0 28.53 45a5 5 0 0 0 6.94 0 4.83 4.83 0 0 0 1.46-3.47V21.42a1.41 1.41 0 0 0-2.81 0v20.15a2.05 2.05 0 0 1-2.17 2 2 2 0 0 1-1.46-.57 2.06 2.06 0 0 1-.61-1.46V17.4a5.65 5.65 0 1 1 11.29 0v26.18c0 4.67-4.21 8.64-9.18 8.65s-9.16-4-9.16-8.65V31.5a1.41 1.41 0 1 0-2.81 0v12.08a11.48 11.48 0 0 0 11.44 11.48L32 55a11.47 11.47 0 0 0 12-11.42V17.4a8.47 8.47 0 0 0-8.48-8.46" class="cls-1"/></svg>