<svg xmlns="http://www.w3.org/2000/svg" width="64" height="64" preserveAspectRatio="xMinYMid" viewBox="0 0 64 64"><defs><style>.cls-2{fill:#5baf07;stroke:#5baf07;stroke-miterlimit:10;stroke-width:.75px}</style></defs><title>estilos iconos paraeducaand_escolares</title><path id="back" d="M61.68 26.4 37.6 2.32A7.84 7.84 0 0 0 32 0a7.83 7.83 0 0 0-5.57 2.31L2.33 26.45a7.89 7.89 0 0 0 0 11.15L26.4 61.68a7.89 7.89 0 0 0 11.15 0l24.12-24.13a7.89 7.89 0 0 0 .01-11.15m-2.21 9L35.36 59.47A4.78 4.78 0 0 1 32 60.88a4.73 4.73 0 0 1-3.37-1.4L4.52 35.41a4.8 4.8 0 0 1 0-6.77L28.64 4.53A4.76 4.76 0 0 1 32 3.12a4.77 4.77 0 0 1 3.38 1.4l24.1 24.08a4.78 4.78 0 0 1-.01 6.76Z" style="fill:#5baf07"/><g id="elements"><path d="m46.54 42-7.45-7.44a12.1 12.1 0 1 0-4.54 4.54L42 46.54A3.22 3.22 0 0 0 46.54 42ZM17.76 28.6A10.84 10.84 0 1 1 28.6 39.43 10.85 10.85 0 0 1 17.76 28.6Zm27.9 17.06a2 2 0 0 1-2.79 0l-7.25-7.25a12.3 12.3 0 0 0 2.79-2.79l7.25 7.25a2 2 0 0 1 0 2.79Z" class="cls-2"/><path d="M36.37 28.21c-.14-.18-3.5-4.34-7.77-4.34S21 28 20.82 28.21a.62.62 0 0 0 0 .77c.14.18 3.5 4.34 7.78 4.34s7.63-4.16 7.77-4.34a.62.62 0 0 0 0-.77Zm-7.77 3.87c-3 0-5.57-2.51-6.48-3.49.9-1 3.49-3.48 6.48-3.48s5.56 2.51 6.47 3.49c-.9.98-3.49 3.48-6.47 3.48Z" class="cls-2"/><path d="M28.6 26.42a2.18 2.18 0 1 0 2.17 2.18 2.19 2.19 0 0 0-2.17-2.18Zm0 3.11a.94.94 0 1 1 .93-.93.94.94 0 0 1-.93.93Z" class="cls-2"/></g></svg>