<svg xmlns="http://www.w3.org/2000/svg" width="64" height="64" preserveAspectRatio="xMinYMid" viewBox="0 0 64 64"><defs><style>.cls-1{fill:#0065ab}</style></defs><title>estilos iconos paraeducaand_escolares</title><g id="elements"><path d="M45.1 30.75c2.59 0 4.71-2.5 4.71-5.56a4.39 4.39 0 0 0-4.71-4.67 4.4 4.4 0 0 0-4.72 4.67c0 3.06 2.12 5.56 4.72 5.56m-2.9-5.56a2.63 2.63 0 0 1 2.9-2.86 2.62 2.62 0 0 1 2.9 2.86c0 2.06-1.3 3.74-2.89 3.74s-2.91-1.68-2.91-3.74M20 30.75c2.6 0 4.71-2.5 4.71-5.56A4.39 4.39 0 0 0 20 20.52a4.39 4.39 0 0 0-4.71 4.67c-.01 3.06 2.1 5.56 4.71 5.56m-2.9-5.56a2.63 2.63 0 0 1 2.9-2.86 2.62 2.62 0 0 1 2.89 2.86c0 2.06-1.29 3.74-2.89 3.74s-2.91-1.68-2.91-3.74Zm15.44 5.23c3 0 5.35-2.85 5.35-6.34a5 5 0 0 0-5.35-5.31 5 5 0 0 0-5.35 5.31c0 3.49 2.4 6.34 5.35 6.34M29 24.08a3.2 3.2 0 0 1 3.53-3.49 3.2 3.2 0 0 1 3.54 3.49c0 2.49-1.59 4.52-3.54 4.52S29 26.57 29 24.08" class="cls-1"/><path d="m54 38.7-.79-4.1a5.11 5.11 0 0 0-5-4.35h-.7a.38.38 0 0 0-.28.12l-2.13 2.35-2.1-2.35a.36.36 0 0 0-.28-.12H42a5 5 0 0 0-2.76.84 5.7 5.7 0 0 0-3.16-.95h-.77a.37.37 0 0 0-.28.13l-2.49 2.83L30 30.27a.4.4 0 0 0-.28-.13H29a5.77 5.77 0 0 0-3.16.95 5 5 0 0 0-2.75-.84h-.69a.36.36 0 0 0-.28.12L20 32.72l-2.1-2.35a.36.36 0 0 0-.28-.12h-.69a5.09 5.09 0 0 0-5 4.33l-.8 4.17a2.83 2.83 0 0 0 1.81 3 20.2 20.2 0 0 0 10.46 1 2.8 2.8 0 0 0 .95.57 23.64 23.64 0 0 0 16.44 0 3 3 0 0 0 1-.58 20.23 20.23 0 0 0 10.46-1A2.86 2.86 0 0 0 54 38.7m-15.23-2.59H37.7a.38.38 0 0 0-.37.38v5.95a22.1 22.1 0 0 1-9.57 0v-5.95a.38.38 0 0 0-.38-.38h-1.06a.38.38 0 0 0-.38.38V42l-1-.33a1.4 1.4 0 0 1-.35-.19l-.19-.23a1.32 1.32 0 0 1-.32-1l.92-4.88a3.6 3.6 0 0 1 .17-.7 4 4 0 0 1 .28-.65l.07-.1.12-.17a2 2 0 0 1 .21-.32l.12-.12.09-.1.07-.07.22-.22A4 4 0 0 1 29 32h.13l3.17 3.57a.4.4 0 0 0 .28.12.36.36 0 0 0 .28-.12L36 32h.12a4 4 0 0 1 3.94 3.47L41 40.2a1 1 0 0 1 0 .26 1.4 1.4 0 0 1-.31.75l-.16.19a1.1 1.1 0 0 1-.39.23l-1 .33v-5.47a.38.38 0 0 0-.37-.38M22.3 40a2.4 2.4 0 0 0 0 .47 2 2 0 0 0 0 .22v.19c0 .06 0 .17.05.25a18.2 18.2 0 0 1-6.35-.32v-5a.38.38 0 0 0-.38-.37h-1.03a.38.38 0 0 0-.38.37v4.53l-.67-.23a1 1 0 0 1-.65-1l.8-4.17a3.29 3.29 0 0 1 3.24-2.82l2.78 3.07a.36.36 0 0 0 .28.12.55.55 0 0 0 .28-.12L23 32.06h.05a3.4 3.4 0 0 1 1.36.3 6 6 0 0 0-.68 1.09 7 7 0 0 0-.29.76v.1a4.5 4.5 0 0 0-.17.77Zm28.57.37v-4.58a.37.37 0 0 0-.37-.37h-1.07a.38.38 0 0 0-.37.37v5a18.5 18.5 0 0 1-6.34.27 2 2 0 0 0 0-.21 3 3 0 0 0 0-.31v-.15a5 5 0 0 0 0-.51l-.93-4.78a5 5 0 0 0-.18-.82v-.1a6 6 0 0 0-.26-.68l-.09-.18a6 6 0 0 0-.33-.58l-.11-.16-.18-.23a3.2 3.2 0 0 1 1.36-.29l2.78 3.07a.36.36 0 0 0 .28.12c.13 0 .21 0 .28-.12l2.73-3.07a3.29 3.29 0 0 1 3.33 2.84l.79 4.1a1 1 0 0 1-.65 1.09Zm-9.59-6" class="cls-1"/><path d="M32 63.9A31.9 31.9 0 1 1 63.9 32 31.94 31.94 0 0 1 32 63.9m0-60.85A29 29 0 1 0 61 32 29 29 0 0 0 32 3.05" class="cls-1"/></g></svg>