<svg xmlns="http://www.w3.org/2000/svg" width="64" height="64" preserveAspectRatio="xMinYMid" viewBox="0 0 64 64"><defs><style>.cls-1{fill:#a25ac4;stroke:#a25ac4;stroke-miterlimit:10;stroke-width:.5px}</style></defs><title>estilos iconos paraeducaand_escolares</title><path d="M17.16 34.65h2c1 0 1.75-1 1.75-2.35v-8.91a4 4 0 0 0 0-.49v-.49c0-4.89 5-8.87 11.08-8.87s11.08 4 11.08 8.87V23a3 3 0 0 0 0 .44v8.86c0 1.34.75 2.35 1.75 2.35h2c1 0 1.76-1 1.76-2.35v-8.91c0-1.34-.76-2.35-1.76-2.35h-2c-.82-5.29-6.27-9.4-12.86-9.4S20 15.75 19.14 21h-2c-1 0-1.76 1-1.76 2.35v8.95c.02 1.34.78 2.35 1.78 2.35ZM45 23.75v-.65a1 1 0 0 1 0-.16h1.6a1.1 1.1 0 0 1 .08.45v8.91a1.1 1.1 0 0 1-.08.45H45a1.4 1.4 0 0 1 0-.45Zm-27.7-.36a1.1 1.1 0 0 1 .08-.45H19a1 1 0 0 1 0 .14v9.22a1.3 1.3 0 0 1-.08.45h-1.6a1.1 1.1 0 0 1-.08-.45Z" class="cls-1"/><path d="M47.8 43.23a5.5 5.5 0 0 0-.77-.68 12 12 0 0 0-4.48-1.65c-2.17-.48-4.22-.93-5.72-2.93h-.06c-.13-.29-.11-1.29 1.32-3 3.18-3.88 2.46-10 2.16-11.77A8.29 8.29 0 0 0 32 16.49a8.29 8.29 0 0 0-8.29 6.64c-.3 1.78-1 7.89 2.16 11.77 1.48 1.8 1.45 2.81 1.31 3.06-1.5 2-3.55 2.45-5.72 2.93A11.9 11.9 0 0 0 17 42.55c-3.36 2.39-2.63 7.53-2.59 7.75l.1.7h35l.1-.7c.03-.19.65-4.5-1.81-7.07Zm.2 6.11H16c-.06-1.3.06-4.08 2-5.43a10.5 10.5 0 0 1 3.87-1.38c2.26-.5 4.81-1.07 6.68-3.55.26-.32 1.26-2-1.33-5.13-2.8-3.35-2.14-8.85-1.87-10.45A6.63 6.63 0 0 1 32 18.15a6.63 6.63 0 0 1 6.65 5.25c.27 1.61.93 7.1-1.81 10.45-2.59 3.15-1.59 4.81-1.33 5.15 1.87 2.48 4.42 3.05 6.68 3.55a10.5 10.5 0 0 1 3.87 1.38 3.4 3.4 0 0 1 .54.47c1.4 1.42 1.48 3.77 1.4 4.94Z" class="cls-1"/><path d="M61.12 2.93A9.74 9.74 0 0 0 54.2.07H9.8A9.78 9.78 0 0 0 0 9.83v44.34a9.76 9.76 0 0 0 9.8 9.76h44.4a9.78 9.78 0 0 0 9.8-9.76V9.83a9.66 9.66 0 0 0-2.88-6.9m-.18 6.9v44.34a6.74 6.74 0 0 1-6.74 6.72H9.8a6.73 6.73 0 0 1-6.73-6.72V9.83A6.75 6.75 0 0 1 9.8 3.11h44.4a6.74 6.74 0 0 1 6.74 6.72" style="fill:#a25ac4"/></svg>