<svg xmlns="http://www.w3.org/2000/svg" width="64" height="64" preserveAspectRatio="xMinYMid" viewBox="0 0 64 64"><defs><style>.cls-1{fill:#a25ac4}</style></defs><title>estilos iconos paraeducaand_escolares</title><path id="back" d="M61.12 2.93A9.74 9.74 0 0 0 54.2.07H9.8A9.78 9.78 0 0 0 0 9.83v44.34a9.76 9.76 0 0 0 9.8 9.76h44.4a9.78 9.78 0 0 0 9.8-9.76V9.83a9.66 9.66 0 0 0-2.88-6.9m-.18 6.9v44.34a6.74 6.74 0 0 1-6.74 6.72H9.8a6.73 6.73 0 0 1-6.73-6.72V9.83A6.75 6.75 0 0 1 9.8 3.11h44.4a6.74 6.74 0 0 1 6.74 6.72" class="cls-1"/><g id="elements"><path d="M32 6.81a17.8 17.8 0 0 0-17.78 17.78c0 9.55 16.49 30.94 17.19 31.84l.59.77.59-.77c.71-.9 17.19-22.29 17.19-31.84A17.8 17.8 0 0 0 32 6.81Zm0 47.92c-3-4-16.28-22.08-16.28-30.14a16.28 16.28 0 0 1 32.56 0C48.28 32.65 35 50.76 32 54.73Z" style="fill:#a25ac4;stroke:#a25ac4;stroke-miterlimit:10"/><path d="M32 11.31a13.44 13.44 0 1 0 13.44 13.44A13.46 13.46 0 0 0 32 11.31m10.94 13.44A10.94 10.94 0 1 1 32 13.81a11 11 0 0 1 10.94 10.94" class="cls-1"/><path d="m41 21.88-6.2-.9-2.8-5.62L29.22 21l-6.2.9 4.49 4.38-1.06 6.18L32 29.52l5.55 2.92-1.06-6.18Zm-6.1 6.91L32 27.27l-2.9 1.52.56-3.23-2.34-2.28 3.23-.47L32 19.88l1.45 2.93 3.23.47-2.34 2.28Z" class="cls-1"/></g></svg>