<svg xmlns="http://www.w3.org/2000/svg" width="64" height="64" preserveAspectRatio="xMinYMid" viewBox="0 0 64 64"><defs><style>.cls-1{fill:#0065ab}</style></defs><title>estilos iconos paraeducaand_escolares</title><g id="elements"><path d="M44.58 15.94H19.42a3 3 0 0 0-2.94 3v26.17a3 3 0 0 0 2.94 3h25.16a3 3 0 0 0 2.94-3V18.89a3 3 0 0 0-2.94-2.95m.38 3v26.17a.38.38 0 0 1-.38.38H19.42a.38.38 0 0 1-.38-.38V18.89a.39.39 0 0 1 .38-.39h25.16a.39.39 0 0 1 .42.39Z" class="cls-1"/><path d="M39.84 33.55h-5.12A1.47 1.47 0 0 0 33.25 35v5.35a1.47 1.47 0 0 0 1.47 1.47h5.12a1.47 1.47 0 0 0 1.47-1.47V35a1.47 1.47 0 0 0-1.47-1.45m-4.33 6v-3.74h3.54v3.77Zm-5.87-6h-5.13A1.47 1.47 0 0 0 23 35v5.35a1.47 1.47 0 0 0 1.47 1.47h5.13a1.47 1.47 0 0 0 1.47-1.47V35a1.47 1.47 0 0 0-1.43-1.45m-4.34 6v-3.74h3.55v3.77ZM40 23.33H24.23a1.28 1.28 0 0 0 0 2.56H40a1.28 1.28 0 0 0 0-2.56m0 5.32H24.23a1.28 1.28 0 1 0 0 2.56H40a1.28 1.28 0 0 0 0-2.56" class="cls-1"/><path d="M32 63.9A31.9 31.9 0 1 1 63.9 32 31.94 31.94 0 0 1 32 63.9m0-60.85A29 29 0 1 0 61 32 29 29 0 0 0 32 3.05" class="cls-1"/></g></svg>