<svg xmlns="http://www.w3.org/2000/svg" width="64" height="64" preserveAspectRatio="xMinYMid" viewBox="0 0 64 64"><defs><style>.cls-1{fill:#0065ab}</style></defs><title>estilos iconos paraeducaand_escolares</title><g id="elements"><path d="M25 27.54h-4.76A1.22 1.22 0 0 0 19 28.76v3.31a1.23 1.23 0 0 0 1.22 1.23H25a1.23 1.23 0 0 0 1.22-1.23v-3.31A1.22 1.22 0 0 0 25 27.54m-.61 1.82v2.11h-3.55v-2.11Zm9.95-1.82h-4.72a1.22 1.22 0 0 0-1.22 1.22v3.31a1.23 1.23 0 0 0 1.22 1.23h4.72a1.23 1.23 0 0 0 1.22-1.23v-3.31a1.22 1.22 0 0 0-1.22-1.22m-.61 1.82v2.11h-3.51v-2.11Zm.78-8.01H20a1.05 1.05 0 1 0 0 2.1h14.51a1.05 1.05 0 0 0 0-2.1m0 3.28H20a1.06 1.06 0 0 0 0 2.11h14.51a1.06 1.06 0 0 0 0-2.11" class="cls-1"/><path d="M51.25 30.38a.3.3 0 0 0 0-.1 2.58 2.58 0 0 0-2.56-2.36h-7.64v-7.73a2.59 2.59 0 0 0-2.59-2.58H15.33a2.59 2.59 0 0 0-2.58 2.58v13.68a2.59 2.59 0 0 0 2.58 2.59h8.06v7.33a2.57 2.57 0 0 0 2.18 2.54.36.36 0 0 0 .2.06h22.89a2.59 2.59 0 0 0 2.59-2.58zM25.5 36.46h4.1a1.1 1.1 0 0 0 .36.06h14.52a1 1 0 1 0 0-2.1H41a2.6 2.6 0 0 0 .06-.55v-.64h3.43a1 1 0 1 0 0-2.1h-3.44V30h7.62a.48.48 0 0 1 .47.46v13.35a.49.49 0 0 1-.48.48H26a.48.48 0 0 1-.48-.48Zm13-2.11H15.33a.47.47 0 0 1-.47-.48V20.19a.48.48 0 0 1 .47-.48h23.13a.48.48 0 0 1 .48.48v13.68a.47.47 0 0 1-.48.48Z" class="cls-1"/><path d="M39.52 43.34h4.72a1.23 1.23 0 0 0 1.22-1.23v-3.3a1.23 1.23 0 0 0-1.22-1.23h-4.72a1.23 1.23 0 0 0-1.22 1.23v3.3a1.23 1.23 0 0 0 1.22 1.23m4.12-3.93v2.1h-3.52v-2.1Zm-13.5 3.93h4.72a1.23 1.23 0 0 0 1.22-1.23v-3.3a1.23 1.23 0 0 0-1.22-1.23h-4.72a1.23 1.23 0 0 0-1.22 1.23v3.3a1.23 1.23 0 0 0 1.22 1.23m.61-1.83v-2.1h3.5v2.1Z" class="cls-1"/><path d="M32 63.9A31.9 31.9 0 1 1 63.9 32 31.94 31.94 0 0 1 32 63.9m0-60.85A29 29 0 1 0 61 32 29 29 0 0 0 32 3.05" class="cls-1"/></g></svg>