<svg xmlns="http://www.w3.org/2000/svg" width="64" height="64" preserveAspectRatio="xMinYMid" viewBox="0 0 64 64"><defs><style>.cls-2{fill:#a25ac4;stroke:#a25ac4;stroke-miterlimit:10;stroke-width:.5px}</style></defs><title>estilos iconos paraeducaand_escolares</title><path id="back" d="M61.1 2.86A9.74 9.74 0 0 0 54.18 0H9.78A9.78 9.78 0 0 0 0 9.76v44.33a9.76 9.76 0 0 0 9.78 9.77h44.4A9.78 9.78 0 0 0 64 54.09V9.76a9.66 9.66 0 0 0-2.9-6.9m-.18 6.9v44.33a6.74 6.74 0 0 1-6.74 6.73H9.78a6.73 6.73 0 0 1-6.73-6.73V9.76A6.74 6.74 0 0 1 9.78 3h44.4a6.74 6.74 0 0 1 6.74 6.72Z" style="fill:#a25ac4"/><g id="elements"><path d="M45.64 25.29a4.74 4.74 0 0 0-3.36-1.42.72.72 0 0 0-.72.7.7.7 0 0 0 .21.51.67.67 0 0 0 .5.21 3.4 3.4 0 0 1 1.25.26 3.3 3.3 0 0 1 1.11.74 3.5 3.5 0 0 1 .74 1.11 3.2 3.2 0 0 1 .26 1.26.7.7 0 0 0 .22.5.68.68 0 0 0 .49.2.73.73 0 0 0 .5-.21.7.7 0 0 0 .2-.51 4.8 4.8 0 0 0-.36-1.78 4.9 4.9 0 0 0-1.04-1.57Zm2.81-2.82a8.86 8.86 0 0 0-6.21-2.62.72.72 0 0 0-.5.2.7.7 0 0 0-.21.5.74.74 0 0 0 .2.51.73.73 0 0 0 .5.21 7.3 7.3 0 0 1 2.77.57 7.4 7.4 0 0 1 2.45 1.64 7.4 7.4 0 0 1 2.21 5.22.72.72 0 0 0 .22.5.7.7 0 0 0 .5.2.7.7 0 0 0 .5-.2.72.72 0 0 0 .21-.52 8.8 8.8 0 0 0-.68-3.3 9.1 9.1 0 0 0-1.96-2.91Z" class="cls-2"/><path d="M54.11 23.91a12.9 12.9 0 0 0-2.84-4.25A13.1 13.1 0 0 0 47 16.81a12.9 12.9 0 0 0-4.81-1 .7.7 0 0 0-.5.2.7.7 0 0 0-.21.51.7.7 0 0 0 .2.5.72.72 0 0 0 .5.22 11.5 11.5 0 0 1 4.29.87 11.7 11.7 0 0 1 3.79 2.55 11.6 11.6 0 0 1 3.42 8.07.7.7 0 0 0 .21.5.7.7 0 0 0 .5.21.7.7 0 0 0 .49-.21.7.7 0 0 0 .21-.51 12.9 12.9 0 0 0-.98-4.81ZM39.38 27A8.82 8.82 0 0 0 34 25.45a9.75 9.75 0 0 0-3.95.72 9.2 9.2 0 0 0-2.91 2.14l-.58.64-.45-.73a4.77 4.77 0 0 0-1.87-1.77 12.8 12.8 0 0 0-5.5-1 12.6 12.6 0 0 0-4.69.79 6.75 6.75 0 0 0-3 2.1 9.2 9.2 0 0 0-1.43 3l2.44.29a6.8 6.8 0 0 1 1-2.33 4.5 4.5 0 0 1 2.21-1.51 10.5 10.5 0 0 1 3.38-.49c2.08 0 3.52.42 4.41 1.27s1.33 2.26 1.33 4.28v1.38l-.46.13a40 40 0 0 1-5.52 1.07 23.4 23.4 0 0 0-5.9 1.33A6.1 6.1 0 0 0 9.82 39a5.56 5.56 0 0 0-1 3.12 5.45 5.45 0 0 0 1.85 4.16A7.6 7.6 0 0 0 16 48a11.3 11.3 0 0 0 4.68-1A15.3 15.3 0 0 0 25 44l.53-.52.47.52a10.1 10.1 0 0 0 3.49 3A9.9 9.9 0 0 0 34 48a9.7 9.7 0 0 0 6-1.83 9.54 9.54 0 0 0 3.19-4.48l-2.7-.35a7 7 0 0 1-2.18 3.36 6.4 6.4 0 0 1-4.18 1.42 7.43 7.43 0 0 1-3.81-1 6.55 6.55 0 0 1-2.55-2.6 11.2 11.2 0 0 1-.77-4.78v-.66h16.5v-.66a14.8 14.8 0 0 0-1-5.24A9.1 9.1 0 0 0 39.38 27Zm-14.91 9.7a21.4 21.4 0 0 1-.34 4.83A6.37 6.37 0 0 1 21.46 45a8.26 8.26 0 0 1-4.68 1.34A5.38 5.38 0 0 1 13 45.07a4 4 0 0 1-1.35-3 3.87 3.87 0 0 1 1.51-3.16 8.06 8.06 0 0 1 3.6-1.24 35.7 35.7 0 0 0 6.78-1.52l.91-.4Zm2.44-1.5v-.7a7.85 7.85 0 0 1 2.12-5.24A6.7 6.7 0 0 1 34 27.34a6.54 6.54 0 0 1 4.7 1.76 8.3 8.3 0 0 1 2.14 5.39l.06.71Z" class="cls-2"/></g></svg>