<svg xmlns="http://www.w3.org/2000/svg" width="64" height="64" preserveAspectRatio="xMinYMid" viewBox="0 0 64 64"><defs><style>.cls-2{fill:#0065ab;stroke:#0065ab;stroke-miterlimit:10;stroke-width:.75px}</style></defs><title>estilos iconos paraeducaand_escolares</title><g id="elements"><path d="M32 63.9A31.9 31.9 0 1 1 63.9 32 31.94 31.94 0 0 1 32 63.9m0-60.85A29 29 0 1 0 61 32 29 29 0 0 0 32 3.05" style="fill:#0065ab"/><path d="M39 10.63c0-2.74-.55-3.66-.67-3.82l-.21-.29H25.84l-.21.29C25.51 7 25 7.89 25 10.63a34.7 34.7 0 0 0 1.77 8.77 3.75 3.75 0 0 0-.6 2.29 5.9 5.9 0 0 0 .45 2.45v9l.21 24.32h1.41l-.06-7.18L28 33.15v-9.36l-.1-.17a4.1 4.1 0 0 1-.34-1.89 2.45 2.45 0 0 1 .34-1.51l.5-.28-.19-.55c0-.05-1.82-5.42-1.82-8.72a9.6 9.6 0 0 1 .29-2.7h10.66a9.6 9.6 0 0 1 .29 2.7c0 3.3-1.81 8.67-1.82 8.72l-.19.55.5.28a2.45 2.45 0 0 1 .34 1.51 4.1 4.1 0 0 1-.34 1.89l-.1.17v9.4l-.15 17.14-.06 7.18h1.41l.21-24.32v-9a5.9 5.9 0 0 0 .45-2.45 3.75 3.75 0 0 0-.6-2.29A34.7 34.7 0 0 0 39 10.63Z" class="cls-2"/><path d="M31.13 35.66a1.23 1.23 0 1 1 0 1.74 1.23 1.23 0 0 1 0-1.74Zm0-5.55a1.23 1.23 0 1 1 0 1.74 1.23 1.23 0 0 1 0-1.74Zm0 11.27a1.23 1.23 0 1 1 0 1.74 1.23 1.23 0 0 1 0-1.74Zm0 5.71a1.23 1.23 0 1 1 0 1.74 1.23 1.23 0 0 1 0-1.74Zm0 5.72a1.23 1.23 0 1 1 0 1.74 1.23 1.23 0 0 1 0-1.74ZM32 15.67c-2 0-2.39-.65-2.39-.65l.71-3.66h3.36l.71 3.64s-.39.67-2.39.67Z" class="cls-2"/></g></svg>