<svg xmlns="http://www.w3.org/2000/svg" width="64" height="64" preserveAspectRatio="xMinYMid"><defs><style>.cls-1{fill:#002a56}</style></defs><title>estilos iconos paraeducaand_escolares</title><path id="back" d="M61.12 2.93A9.74 9.74 0 0 0 54.2.07H9.8A9.78 9.78 0 0 0 0 9.83v44.34a9.76 9.76 0 0 0 9.8 9.76h44.4a9.78 9.78 0 0 0 9.8-9.76V9.83a9.66 9.66 0 0 0-2.88-6.9m-.18 6.9v44.34a6.74 6.74 0 0 1-6.74 6.72H9.8a6.73 6.73 0 0 1-6.73-6.72V9.83A6.75 6.75 0 0 1 9.8 3.11h44.4a6.74 6.74 0 0 1 6.74 6.72" class="cls-1"/><g id="elements"><path d="m48.32 32.5-2.71-5v-3.3a15.15 15.15 0 0 0-30.3 0v2.55a15.63 15.63 0 0 0 2.75 8.87v11a1 1 0 0 0 .46 1l.73.36.13.06 15.87 6.9a1.2 1.2 0 0 0 .5.1 1.2 1.2 0 0 0 1.2-1.2v-8.21a.1.1 0 0 1 .1-.1h2.65a5.92 5.92 0 0 0 5.91-5.91v-2.74h.1a3 3 0 0 0 2.61-4.38m-17.86-21A12.75 12.75 0 0 1 43.2 24.2v3.66a1.14 1.14 0 0 0 .15.58l2.86 5.22a.55.55 0 0 1-.48.81h-1.32a1.23 1.23 0 0 0-1.21 1.21v3.95a3.5 3.5 0 0 1-3.5 3.5h-2.65a2.51 2.51 0 0 0-2.51 2.51v6.26l-13.78-6-.26-.12V35.24a1.18 1.18 0 0 0-.23-.71 13.2 13.2 0 0 1-2.52-7.78V24.2a12.75 12.75 0 0 1 12.71-12.74Z" class="cls-1"/><path d="M21.71 27.69h.33l-.21.27a2.43 2.43 0 0 0 .07 3.23l1.55 1.55a2.44 2.44 0 0 0 3.24.07l.26-.21.05.4a2.44 2.44 0 0 0 2.34 2.24h2.19A2.43 2.43 0 0 0 33.85 33v-.34l.27.21a2.44 2.44 0 0 0 3.24-.07L39 31.23A2.43 2.43 0 0 0 39 28l-.21-.27h.34a2.44 2.44 0 0 0 2.24-2.33v-2.2a2.43 2.43 0 0 0-2.24-2.33h-.34l.21-.27a2.45 2.45 0 0 0 0-3.32l-1.6-1.54a2.44 2.44 0 0 0-3.24-.07l-.27.21v-.34a2.43 2.43 0 0 0-2.33-2.24h-2.23A2.44 2.44 0 0 0 27 15.54v.34l-.27-.21a2.42 2.42 0 0 0-3.23.07l-1.6 1.54a2.46 2.46 0 0 0-.07 3.24l.21.27h-.33a2.44 2.44 0 0 0-2.25 2.33v2.2a2.44 2.44 0 0 0 2.25 2.37m1.42-4.6a1.2 1.2 0 0 0 1-.83 7 7 0 0 1 .43-1 1.2 1.2 0 0 0-.12-1.3l-.71-.9a1 1 0 0 1-.06-.1l1.42-1.42a.2.2 0 0 1 .1 0l.9.71a1.21 1.21 0 0 0 1.3.13 6 6 0 0 1 1-.43 1.2 1.2 0 0 0 .83-1l.14-1.13a.4.4 0 0 1 0-.12h2a1 1 0 0 1 0 .12l.23 1.18a1.22 1.22 0 0 0 .84 1 6.5 6.5 0 0 1 1 .43 1.23 1.23 0 0 0 1.31-.13l.9-.71a.16.16 0 0 1 .1 0L37.16 19a.4.4 0 0 1-.06.11l-.71.9a1.2 1.2 0 0 0-.12 1.3 6 6 0 0 1 .42 1 1.22 1.22 0 0 0 1 .83l1.14.13h.11v2h-.11l-1.14.13a1.22 1.22 0 0 0-1 .83 6.6 6.6 0 0 1-.42 1 1.2 1.2 0 0 0 .12 1.3l.71.9.06.1-1.4 1.47-.1-.05-.9-.71a1.21 1.21 0 0 0-1.31-.13 7 7 0 0 1-1 .43 1.22 1.22 0 0 0-.84 1l-.13 1.13a1 1 0 0 1 0 .12h-2a.4.4 0 0 1 0-.12l-.14-1.13a1.2 1.2 0 0 0-.83-1 6.6 6.6 0 0 1-1-.43 1.23 1.23 0 0 0-1.3.13l-.9.71-.1.05-1.42-1.42a.3.3 0 0 1 .06-.1l.71-.9a1.2 1.2 0 0 0 .12-1.3 8 8 0 0 1-.43-1 1.2 1.2 0 0 0-1-.83L22 25.3a.23.23 0 0 1-.11 0v-2a.23.23 0 0 1 .11 0Z" class="cls-1"/><path d="M30.42 29.05a4.79 4.79 0 1 0-4.79-4.79 4.8 4.8 0 0 0 4.79 4.79M28 24.26a2.39 2.39 0 1 1 4.07 1.68A2.38 2.38 0 0 1 28 24.26" class="cls-1"/></g></svg>