<svg xmlns="http://www.w3.org/2000/svg" width="64" height="64" preserveAspectRatio="xMinYMid"><defs><style>.cls-1{fill:#002a56}</style></defs><title>estilos iconos paraeducaand_escolares</title><path id="back" d="M61.12 2.93A9.74 9.74 0 0 0 54.2.07H9.8A9.78 9.78 0 0 0 0 9.83v44.34a9.76 9.76 0 0 0 9.8 9.76h44.4a9.78 9.78 0 0 0 9.8-9.76V9.83a9.66 9.66 0 0 0-2.88-6.9m-.18 6.9v44.34a6.74 6.74 0 0 1-6.74 6.72H9.8a6.73 6.73 0 0 1-6.73-6.72V9.83A6.75 6.75 0 0 1 9.8 3.11h44.4a6.74 6.74 0 0 1 6.74 6.72" class="cls-1"/><g id="elements"><path d="M49.9 19.83H18.8a3.32 3.32 0 0 0-3.32 3.32v22.56A3.33 3.33 0 0 0 18.8 49h31.1a3.33 3.33 0 0 0 3.32-3.33V23.15a3.32 3.32 0 0 0-3.32-3.32M29.55 34.34l4.91 6.72a1.16 1.16 0 0 0 .86.49 1.18 1.18 0 0 0 1-.34l3.2-3.13 7.7 8.54H21.1Zm9.14 1.13-3.1 3-5.09-7a1.22 1.22 0 0 0-1-.49 1.17 1.17 0 0 0-1 .52L18.29 46.44a.87.87 0 0 1-.39-.73V23.15a.9.9 0 0 1 .9-.9h31.1a.9.9 0 0 1 .9.9v22.56a.87.87 0 0 1-.48.78l-9.89-11a1.17 1.17 0 0 0-.83-.4h-.09a1.17 1.17 0 0 0-.82.38" class="cls-1"/><path d="M42.49 33.45a3.89 3.89 0 1 0-3.88-3.88 3.89 3.89 0 0 0 3.88 3.88M41 29.57A1.47 1.47 0 1 1 42.49 31 1.47 1.47 0 0 1 41 29.57M14.1 41.75a.9.9 0 0 1-.9-.9V18.29a.9.9 0 0 1 .9-.91h31.1a.9.9 0 0 1 .9.91 1.21 1.21 0 0 0 2.42 0A3.33 3.33 0 0 0 45.2 15H14.1a3.33 3.33 0 0 0-3.32 3.33v22.52a3.32 3.32 0 0 0 3.32 3.32 1.21 1.21 0 1 0 0-2.42" class="cls-1"/></g></svg>