<svg xmlns="http://www.w3.org/2000/svg" width="64" height="64" preserveAspectRatio="xMinYMid" viewBox="0 0 64 64"><defs><style>.cls-1{fill:#a25ac4}</style></defs><title>estilos iconos paraeducaand_escolares</title><path id="back" d="M61.12 2.93A9.74 9.74 0 0 0 54.2.07H9.8A9.78 9.78 0 0 0 0 9.83v44.34a9.76 9.76 0 0 0 9.8 9.76h44.4a9.78 9.78 0 0 0 9.8-9.76V9.83a9.66 9.66 0 0 0-2.88-6.9m-.18 6.9v44.34a6.74 6.74 0 0 1-6.74 6.72H9.8a6.73 6.73 0 0 1-6.73-6.72V9.83A6.75 6.75 0 0 1 9.8 3.11h44.4a6.74 6.74 0 0 1 6.74 6.72" class="cls-1"/><g id="elements"><path d="M25.88 43.47h12.15A3 3 0 0 0 41 39.81L39.56 33a3 3 0 0 0-.94-1.63 2.9 2.9 0 0 0-1.2-.65l-.07-21.41a2.37 2.37 0 0 0-.8-1.78 2.34 2.34 0 0 0-1.55-.6L28.75 7a2.38 2.38 0 0 0-1.69.7 2.4 2.4 0 0 0-.69 1.69l.07 21.46a3 3 0 0 0-2.12 2.29l-1.38 6.78a3 3 0 0 0 2.94 3.6Zm9.2-34.28a.2.2 0 0 1 .05.13l.07 21.34h-6.54l-.07-21.32a.17.17 0 0 1 .16-.17h6.22a.2.2 0 0 1 .11.02m-10 31.42h13.69a1 1 0 0 1-.16.35.83.83 0 0 1-.61.29H25.85a.77.77 0 0 1-.77-.63Zm.39-2.22 1-4.86a.81.81 0 0 1 .77-.63h9.36a.77.77 0 0 1 .52.2.72.72 0 0 1 .24.42l1 4.86Z" class="cls-1"/><path d="M30.3 22.11a2.35 2.35 0 0 0 1.56.59 2.36 2.36 0 0 0 2.35-2.36v-3.48a2.4 2.4 0 0 0-.79-1.75 2.35 2.35 0 0 0-3.92 1.77v3.48a2.37 2.37 0 0 0 .8 1.75m1.57-1.18-.14-.58v-.63H32v.63a.14.14 0 0 1-.13.13zm-.13-3.43v-.72h.18a.13.13 0 0 1 0 .1v.63Zm.94 28.62a1.06 1.06 0 0 0-.74-.29A1.13 1.13 0 0 0 30.83 47v9A1.11 1.11 0 0 0 32 57.07 1.1 1.1 0 0 0 33.08 56v-9a1.09 1.09 0 0 0-.4-.88M42 50.84l-4-4.77-.15-.07a1.12 1.12 0 0 0-1.46 0 1.1 1.1 0 0 0-.13 1.56l4 4.77a1.1 1.1 0 0 0 1.56.14 1.11 1.11 0 0 0 .18-1.63M27.55 46a1.13 1.13 0 0 0-1.55.16l-4 4.8a1.16 1.16 0 0 0-.25.81 1.13 1.13 0 0 0 1.11 1H23a1.12 1.12 0 0 0 .76-.4l4-4.79a1.1 1.1 0 0 0-.1-1.52Z" class="cls-1"/></g></svg>