<svg xmlns="http://www.w3.org/2000/svg" width="64" height="64" preserveAspectRatio="xMinYMid" viewBox="0 0 64 64"><defs><style>.cls-1{fill:#5baf07}</style></defs><title>estilos iconos paraeducaand_escolares</title><path id="back" d="M61.61 26.47 37.54 2.39A7.86 7.86 0 0 0 32 .09a7.85 7.85 0 0 0-5.62 2.31L2.27 26.52a7.89 7.89 0 0 0 0 11.15l24.07 24.08a7.89 7.89 0 0 0 11.15 0l24.12-24.13a7.89 7.89 0 0 0 0-11.15m-2.2 9L35.3 59.54A4.76 4.76 0 0 1 31.91 61a4.75 4.75 0 0 1-3.38-1.4L4.46 35.48a4.8 4.8 0 0 1 0-6.77L28.58 4.6A4.7 4.7 0 0 1 32 3.2a4.73 4.73 0 0 1 3.37 1.39l24.05 24.08a4.78 4.78 0 0 1-.01 6.76Z" class="cls-1"/><path id="elements" d="M48.3 21.58a1.14 1.14 0 0 0-.94-1.95l-2.78.31.31-2.79a1.17 1.17 0 0 0-.64-1.15 1.14 1.14 0 0 0-1.32.22l-2.61 2.62a17.35 17.35 0 1 0 5.39 5.34ZM31.07 35.35a1.82 1.82 0 1 1 0-3.64h.1l-1 1a1.15 1.15 0 0 0 0 1.63 1.18 1.18 0 0 0 1.62 0l1.06-1a2 2 0 0 1 0 .25 1.82 1.82 0 0 1-1.78 1.76m0 6.62a8.44 8.44 0 1 1 5-15.19L33 29.88a4.1 4.1 0 0 0-1.94-.49 4.16 4.16 0 1 0 3.59 2.09l3.09-3.09A8.44 8.44 0 0 1 31.07 42Zm7.32-20.86L38 24.92l-.2.21a10.77 10.77 0 1 0 1.63 1.61l.19-.19 3.82-.43a1.1 1.1 0 0 0 .6-.25 14.9 14.9 0 0 1 2.12 7.66 15.12 15.12 0 1 1-7.5-13 1.15 1.15 0 0 0-.27.58" class="cls-1"/></svg>